<svg xmlns="http://www.w3.org/2000/svg" viewBox="0 0 239.57 239.57"><defs><style>.cls-1{fill:#44a930;}</style></defs><g id="Camada_2" data-name="Camada 2"><g id="Camada_1-2" data-name="Camada 1"><path class="cls-1" d="M134.68,238.63,37.39,206.72a119.93,119.93,0,0,0,97.29,31.91Z"></path><path class="cls-1" d="M5.15,154.45a120.63,120.63,0,0,0,10.77,24.94l152.24,49.94a120.32,120.32,0,0,0,23.45-13.72Z"></path><path class="cls-1" d="M48.73,23.38l185.4,60.81a120.26,120.26,0,0,0-11.09-25L72.5,9.77A119.77,119.77,0,0,0,48.73,23.38Z"></path><path class="cls-1" d="M6,82.46q-1.53,4.7-2.67,9.41l226.83,74.4c1.25-3,2.4-6,3.42-9.16,1.11-3.38,2.05-6.78,2.85-10.19L9.73,72.56C8.36,75.78,7.1,79.08,6,82.46Z"></path><path class="cls-1" d="M.32,111.17A118.1,118.1,0,0,0,.7,132.71l207.38,68a119.11,119.11,0,0,0,13.06-17.13Z"></path><path class="cls-1" d="M106.75.71l94.06,30.86A120.11,120.11,0,0,0,106.75.71Z"></path><path class="cls-1" d="M32.09,38.2A117.66,117.66,0,0,0,18.86,55.27l220.45,72.32a118.58,118.58,0,0,0-.55-21.59Z"></path></g></g></svg>