<svg xmlns="http://www.w3.org/2000/svg" viewBox="0 0 317.6 317.62"><defs><style>.cls-1{fill:#0063ab;}</style></defs><g id="Camada_2" data-name="Camada 2"><g id="Camada_1-2" data-name="Camada 1"><path class="cls-1" d="M282.52,258.42l-122.2,59.2a159.12,159.12,0,0,0,122.2-59.2Z"></path><path class="cls-1" d="M81.42,297.47a159.89,159.89,0,0,0,33.25,13.87L305.88,218.7A160.41,160.41,0,0,0,315.61,184Z"></path><path class="cls-1" d="M2.21,132.31,235.08,19.49A159.85,159.85,0,0,0,201.42,5.82L12.35,97.43A159.57,159.57,0,0,0,2.21,132.31Z"></path><path class="cls-1" d="M15.89,228q2.85,5.9,6.13,11.43l284.88-138q-2.32-6-5.18-11.89-3.09-6.37-6.67-12.34l-284.71,138Q12.82,221.66,15.89,228Z"></path><path class="cls-1" d="M36.93,260.65a157.34,157.34,0,0,0,20.21,20.19L317.6,154.64a157.47,157.47,0,0,0-3.32-28.37Z"></path><path class="cls-1" d="M36.67,57.24,154.81,0A159.21,159.21,0,0,0,36.67,57.24Z"></path><path class="cls-1" d="M0,161.79a157.39,157.39,0,0,0,3.11,28.47L280,56.1A158,158,0,0,0,259.58,36Z"></path></g></g></svg>