<svg xmlns="http://www.w3.org/2000/svg" viewBox="0 0 258.83 258.84"><defs><style>.cls-1{fill:#041c75;}</style></defs><g id="Camada_2" data-name="Camada 2"><g id="Camada_1-2" data-name="Camada 1"><path class="cls-1" d="M145.51,257.82,40.39,223.35a129.65,129.65,0,0,0,105.12,34.47Z"></path><path class="cls-1" d="M5.56,166.87A130.63,130.63,0,0,0,17.2,193.82l164.48,54A129.73,129.73,0,0,0,207,233Z"></path><path class="cls-1" d="M52.65,25.26,253,91A130.75,130.75,0,0,0,241,63.9L78.33,10.55A130.32,130.32,0,0,0,52.65,25.26Z"></path><path class="cls-1" d="M6.47,89.09Q4.82,94.16,3.59,99.26l245.07,80.39q2-4.83,3.7-9.9c1.2-3.66,2.21-7.33,3.07-11L10.51,78.4C9,81.87,7.67,85.44,6.47,89.09Z"></path><path class="cls-1" d="M.34,120.11a129,129,0,0,0,.41,23.27l224.06,73.49a128,128,0,0,0,14.12-18.5Z"></path><path class="cls-1" d="M115.33.77,217,34.11A129.75,129.75,0,0,0,115.33.77Z"></path><path class="cls-1" d="M34.67,41.28a127.87,127.87,0,0,0-14.3,18.44l238.19,78.13a128.64,128.64,0,0,0-.59-23.33Z"></path></g></g></svg>