<svg xmlns="http://www.w3.org/2000/svg" xmlns:xlink="http://www.w3.org/1999/xlink" viewBox="0,0,256,256" width="24px" height="24px"><g fill="#ffffff" fill-rule="nonzero" stroke="none" stroke-width="1" stroke-linecap="butt" stroke-linejoin="miter" stroke-miterlimit="10" stroke-dasharray="" stroke-dashoffset="0" font-family="none" font-weight="none" font-size="none" text-anchor="none" style="mix-blend-mode: normal"><g transform="scale(10.66667,10.66667)"><path d="M12,2c-5.523,0 -10,4.477 -10,10c0,5.395 4.275,9.78 9.621,9.981v-6.942h-2.343v-2.725h2.343v-2.005c0,-2.324 1.421,-3.591 3.495,-3.591c0.699,-0.002 1.397,0.034 2.092,0.105v2.43h-1.428c-1.13,0 -1.35,0.534 -1.35,1.322v1.735h2.7l-0.351,2.725h-2.365v6.659c4.354,-1.081 7.586,-5.005 7.586,-9.694c0,-5.523 -4.477,-10 -10,-10z"></path></g></g></svg>