<svg xmlns="http://www.w3.org/2000/svg" viewBox="0 0 147.51 147.53"><defs><style>.cls-1{fill:#fff;}</style></defs><g id="Camada_2" data-name="Camada 2"><g id="Camada_1-2" data-name="Camada 1"><path class="cls-1" d="M0,66.86a65.56,65.56,0,0,1,2.3-7.65A24.43,24.43,0,0,1,16.2,45.79c1.19-.47,1.11-1.21,1.1-2.12a34.51,34.51,0,0,1,26.05-34,33,33,0,0,1,17.34.12,2.18,2.18,0,0,0,2.4-.56A33.9,33.9,0,0,1,89,.08a35.08,35.08,0,0,1,31.33,26.14,3.12,3.12,0,0,0,2.16,2.42c14.25,5.92,22.74,16.46,24.69,31.83a39.23,39.23,0,0,1-24.06,40.86,2.65,2.65,0,0,0-1.84,2.47c-1.78,11.82-8.24,20.06-19.31,24.47-11.47,4.57-25.32,1.16-33.59-8a1.56,1.56,0,0,0-2-.5A30.13,30.13,0,0,1,26.5,97.24c-.09-.47-.21-.93-.3-1.33a53.19,53.19,0,0,1-6.51-1C8.83,91.81,2.33,84.68.27,73.54A3.15,3.15,0,0,0,0,72.91Zm70.29,41.08c6,10.45,14.59,15.94,26.4,12.78,12.52-3.34,17.15-12.69,16-25.24l2.57-.67A30.61,30.61,0,0,0,138,57.87c-2.94-12-10.87-19.41-22.85-22.41-1.53-.38-2.31-.89-2.45-2.62A26.23,26.23,0,0,0,87.4,8.71c-8.55-.27-15.54,3.16-21,9.7-1.75,2.09-1.76,2.08-4.24,1.06-8.18-3.35-16.22-3-23.69,1.69-9,5.67-13.2,14-12.27,24.73.18,2,.58,4,.89,6.13-1.27.24-2.44.49-3.61.69C13.69,54.36,7.6,62.62,8.9,72.46A17.23,17.23,0,0,0,28,86.83c2.17-.33,4.32-.76,6.78-1.2-1.1,9.8,1.11,18.35,9.83,23.88S62,113.6,70.29,107.94Z"></path><path class="cls-1" d="M0,127.65c.26-.85.51-1.71.78-2.56A17.41,17.41,0,0,1,19.09,113a17.32,17.32,0,0,1,1.55,34.23,5.45,5.45,0,0,0-.76.3H14.69a5.45,5.45,0,0,0-.76-.3A16.44,16.44,0,0,1,3,139.89c-1.33-2.15-2-4.69-3-7Zm8.64,2.51a8.77,8.77,0,0,0,8.52,8.73,8.65,8.65,0,1,0,.18-17.29A8.76,8.76,0,0,0,8.64,130.16Z"></path><path class="cls-1" d="M91.76,44.53c1,2.64,1.83,4.93,2.77,7.17a1.64,1.64,0,0,0,1.24.73c2.58.07,5.17,0,7.85,0v8.63c-2.62,0-5.2,0-7.78,0-.84,0-1.22.17-1.46,1.09a21,21,0,0,1-7,11,2.62,2.62,0,0,0-1,2.33c0,3.78,0,7.57,0,11.44H60.51V85.6c0-3.5,0-7,0-10.51a2.56,2.56,0,0,0-.77-1.67,22.22,22.22,0,0,1-7.19-11.37c-.2-.79-.52-1-1.25-1-2.63,0-5.26,0-8,0V52.46c2.42,0,4.85-.09,7.27,0,1.3.06,1.77-.35,2.15-1.58.64-2.09,1.6-4.08,2.51-6.32l-6.17-6,6.12-6.07,5.91,6c2.75-1,5.16-1.91,7.53-2.87.29-.12.5-.75.51-1.15.05-2.59,0-5.18,0-7.88h8.63c0,2.52,0,5.05,0,7.58A1.4,1.4,0,0,0,79,35.9c2.18.67,4.26,1.65,6.49,2.55l5.9-6.11,6.33,6.33Zm-14,33.8c0-2.28.15-4.4,0-6.5s.51-3,2.24-4a12.57,12.57,0,0,0,5.56-15.65A12.93,12.93,0,0,0,60.7,58.7a12.67,12.67,0,0,0,7,9.59,2.31,2.31,0,0,1,1.44,2.45c-.1,2.52,0,5.05,0,7.59Z"></path><path class="cls-1" d="M60.58,104.21V95.75H86.31v8.46Z"></path></g></g></svg>