<svg xmlns="http://www.w3.org/2000/svg" viewBox="0 0 166.79 166.79"><defs><style>.cls-1{fill:#fff;}</style></defs><g id="Camada_2" data-name="Camada 2"><g id="Camada_1-2" data-name="Camada 1"><path class="cls-1" d="M84.38,0a4.2,4.2,0,0,1,2.3,4.41c-.12,1.73,0,3.46,0,5.19a3.24,3.24,0,1,1-6.47,0c0-1.73.08-3.47,0-5.19A4.2,4.2,0,0,1,82.43,0Z"></path><path class="cls-1" d="M0,82.43a4.2,4.2,0,0,1,4.41-2.3c1.73.12,3.46,0,5.19,0a3.24,3.24,0,1,1,0,6.47c-1.73,0-3.46-.08-5.19,0A4.2,4.2,0,0,1,0,84.38Z"></path><path class="cls-1" d="M134.93,98.26c4.71,7.25,5.06,14.61.72,21.89s-11,10.44-19.47,10.14c-1.7,7.71-6.25,12.81-13.9,14.54S88.42,144,83.42,137.9c-5,6-11.36,8.67-19,6.9S52.35,138,50.69,130.52a57.94,57.94,0,0,1-6.63-.86,20.65,20.65,0,0,1-15.9-19.76,17,17,0,0,1,2.32-9.19c.59-1,.45-1.51-.46-2.25a22.37,22.37,0,0,1,2.31-36.75,2.24,2.24,0,0,0,1.21-2.48A20.21,20.21,0,0,1,48.81,37.86a2.33,2.33,0,0,0,2.09-2.31c1-6.49,7.29-12.53,14.07-13.7a18.08,18.08,0,0,1,17.68,6.23c.21.24.43.46.74.79l1.12-1.2c4.83-5.2,10.8-7.22,17.68-5.71s11.52,5.76,13.39,12.56c.61,2.24,1.51,3.07,3.68,3.78a19.43,19.43,0,0,1,13.06,13,3.32,3.32,0,0,0,2.19,2.13c8.12,3.56,13.09,9.79,14.58,18.43A24.13,24.13,0,0,1,136.51,97.4C136,97.65,135.56,97.92,134.93,98.26ZM80.15,83.11v-1.7c0-13.73-.08-27.47,0-41.21A11.61,11.61,0,0,0,66.4,28.27c-4.52.82-8.7,4.82-9,9,1.52.58,3.07,1.05,4.51,1.76,3.14,1.54,4.87,4.4,6.45,7.33a4.72,4.72,0,0,0,3.79,2.87,3.08,3.08,0,0,1,2.73,3.58,3.38,3.38,0,0,1-3.64,2.79,9,9,0,0,1-7.48-4.23,29.91,29.91,0,0,1-1.92-3.21c-1.9-3.78-5.15-4.7-9-4.34A13.84,13.84,0,0,0,40.56,61.39c.66,2.18-.05,3.44-2.12,4.5-.48.24-1,.46-1.47.69a16,16,0,0,0-8.76,16.25,15.63,15.63,0,0,0,8,12c3.7,2.17,4,3.54,1.42,6.92a14,14,0,0,0-2.14,3.79c-3.2,9.37,4.76,19.13,14.67,18.12,4.65-.47,8.22-2.25,9.53-7.14a12.27,12.27,0,0,1,8-7.84c1.33-.38,2.78-.3,3.51.93a4.62,4.62,0,0,1,.57,3.28,3.94,3.94,0,0,1-2.28,2.05,5.77,5.77,0,0,0-3.61,3.68c-.36,1-.74,1.92-1.16,2.86A12.29,12.29,0,0,1,58.49,128a1.69,1.69,0,0,0-1.11,2.37A11.38,11.38,0,0,0,69,138.71c6.76-.32,11.13-5.15,11.14-12,0-11.78,0-23.56,0-35.35V90.19l-10.29-3C67.08,89,64.15,91,61.08,92.8a3.19,3.19,0,0,1-4.93-2.16c-.31-1.41.43-2.66,2.05-3.69,2-1.32,4-2.71,6.06-4.07a1,1,0,0,0,.3-1.62c-1.21-1.93-2.32-3.92-3.46-5.89a8.62,8.62,0,0,0-5.82-4.32c-.64-.14-1.29-.2-1.91-.38A3.23,3.23,0,0,1,51,67a3.32,3.32,0,0,1,3.75-2.62,15.22,15.22,0,0,1,12,7.83c1,1.74,2,3.48,3,5.2C72.14,81.18,75.69,82.78,80.15,83.11Zm6.51,7.27c.48-.23.67-.31.85-.42,7.77-4.53,16.41-.59,20.3,6.3a3.24,3.24,0,0,1-5.43,3.52c-.38-.47-.68-1-1-1.46-3.78-5-10.46-5-13.16.22a15.57,15.57,0,0,0-1.46,6.56c-.18,7.16,0,14.33-.09,21.5a11.58,11.58,0,0,0,13.76,11.94c4.22-.77,8.38-4.46,9.06-8.51.08-.52-.11-1.47-.44-1.61-4.4-1.91-6.67-5.52-8.13-9.84a5.66,5.66,0,0,0-3.77-3.72,3.21,3.21,0,0,1-2.22-4.36c.66-1.71,2.42-2.36,4.49-1.75a11.16,11.16,0,0,1,7.75,7.88c1.27,4,3.94,6.1,8,6.81a14.27,14.27,0,0,0,14.9-6.69c3.09-5.2,2.61-10.9-1.42-15.66a3.12,3.12,0,0,0-1.89-.79c-2.1-.2-4.25,0-6.31-.41-10.39-1.87-18.8-11-19.73-21.27-1-11.37,5.22-21.74,15.6-25.5A78.65,78.65,0,0,1,125.12,51,13.38,13.38,0,0,0,118.44,45c-5.78-2.53-9.68-1.54-13.58,3.39a3.18,3.18,0,0,1-4.46.82,3.34,3.34,0,0,1-.87-4.62,13.32,13.32,0,0,1,9.88-7.13c-.2-5.2-6.51-10-12-9.3C90.53,29,86.66,33.4,86.66,40.33q0,24.11,0,48.21Zm56.23-14.73A17.91,17.91,0,0,0,124.42,58c-9.94.25-17.56,8.65-17.25,19,.28,9.18,8.87,17.12,18.19,16.8C135.27,93.45,143.18,85.27,142.89,75.65Z"></path><path class="cls-1" d="M23.12,46.46c-.3,2.51-2.57,4.12-4.7,3.09a55.77,55.77,0,0,1-6.31-3.64,3.18,3.18,0,0,1,3.1-5.51A54.84,54.84,0,0,1,21.52,44C22.26,44.53,22.6,45.63,23.12,46.46Z"></path><path class="cls-1" d="M23.18,120.49a11,11,0,0,1-2,2.54,54.52,54.52,0,0,1-5.59,3.28,3.22,3.22,0,0,1-4.39-1.13,3.14,3.14,0,0,1,1-4.41,52.38,52.38,0,0,1,6.2-3.49C20.63,116.29,22.86,117.91,23.18,120.49Z"></path><path class="cls-1" d="M143.69,120.38c.28-2.36,2.41-4.09,4.38-3.2a50.4,50.4,0,0,1,6.87,3.94,3,3,0,0,1,.62,4.09,3.05,3.05,0,0,1-3.95,1.25,59,59,0,0,1-6.3-3.66C144.57,122.29,144.22,121.21,143.69,120.38Z"></path><path class="cls-1" d="M46.39,23.19a10.24,10.24,0,0,1-2.57-1.91,49.47,49.47,0,0,1-3.27-5.59,3.29,3.29,0,0,1,1.18-4.52,3.21,3.21,0,0,1,4.47,1.32,54.72,54.72,0,0,1,3.32,5.93C50.5,20.57,48.93,22.84,46.39,23.19Z"></path><path class="cls-1" d="M43.49,156.31c-2.3-.26-4.09-2.43-3.21-4.36a50.07,50.07,0,0,1,4-7,3,3,0,0,1,4-.54,3,3,0,0,1,1.3,3.79,67,67,0,0,1-3.87,6.73C45.29,155.6,44.25,155.86,43.49,156.31Z"></path><path class="cls-1" d="M120.52,143.63a11.38,11.38,0,0,1,2.52,2,51.06,51.06,0,0,1,3.19,5.45,3.26,3.26,0,0,1-1.24,4.62,3.19,3.19,0,0,1-4.43-1.41,59.46,59.46,0,0,1-3.29-6C116.3,146.16,117.93,143.94,120.52,143.63Z"></path><path class="cls-1" d="M160.14,86.64c-1.08,0-2.17.06-3.24,0a3.21,3.21,0,0,1-3.1-3.3,3.17,3.17,0,0,1,3.08-3.14q3.41-.12,6.81,0a3.17,3.17,0,0,1,3.1,3.29,3.22,3.22,0,0,1-3.08,3.15C162.52,86.7,161.33,86.64,160.14,86.64Z"></path><path class="cls-1" d="M80.16,160.21c0-1.09,0-2.17,0-3.25a3.23,3.23,0,0,1,6.46,0c.07,2.21.07,4.43,0,6.64a3.18,3.18,0,0,1-3.23,3.17,3.22,3.22,0,0,1-3.23-3.18C80.12,162.48,80.16,161.34,80.16,160.21Z"></path><path class="cls-1" d="M50.68,89.93a3.13,3.13,0,0,1,3.19,3.17,3.27,3.27,0,0,1-3.27,3.31A3.34,3.34,0,0,1,47.37,93,3.25,3.25,0,0,1,50.68,89.93Z"></path><path class="cls-1" d="M98.47,52.28a3.27,3.27,0,0,1-3.33,3.27A3.27,3.27,0,1,1,95.28,49,3.31,3.31,0,0,1,98.47,52.28Z"></path><path class="cls-1" d="M125.09,77.18c2,0,3.7,0,5.43,0,2.19,0,3.7,1.45,3.65,3.31a3.42,3.42,0,0,1-3.63,3.21q-4.16.06-8.3,0c-2.37,0-3.65-1.27-3.67-3.6,0-3.75,0-7.49,0-11.24,0-2.19,1.44-3.7,3.3-3.64a3.39,3.39,0,0,1,3.21,3.62C125.12,71.54,125.09,74.25,125.09,77.18Z"></path></g></g></svg>