<svg xmlns="http://www.w3.org/2000/svg" viewBox="0 0 125.2 89.56"><defs><style>.cls-1,.cls-2{fill:#fff;}.cls-2{fill-rule:evenodd;}</style></defs><g id="Camada_2" data-name="Camada 2"><g id="Camada_1-2" data-name="Camada 1"><path class="cls-1" d="M.35,79.3c-.29-.13-.35-.23-.35-.66,0-1.07.07-2.24.09-2.55s.08-.51.23-.51.18.18.18.33a4.45,4.45,0,0,0,.17,1,2.56,2.56,0,0,0,2.65,2,2.3,2.3,0,0,0,2.49-2.22c0-1-.28-1.85-1.82-3.11l-.85-.7c-2-1.68-2.75-3-2.75-4.62,0-2.14,1.71-3.68,4.29-3.68a8.42,8.42,0,0,1,2.46.33c.17,0,.26.09.26.23s-.07.82-.07,2.34c0,.43-.06.58-.2.58s-.19-.11-.19-.35a2.4,2.4,0,0,0-.48-1.28,2.32,2.32,0,0,0-2-1,2,2,0,0,0-2.21,2c0,.89.42,1.58,2,2.8l.52.41c2.25,1.78,3.05,3.12,3.05,5A4,4,0,0,1,6,79a5.18,5.18,0,0,1-2.95.8A6.19,6.19,0,0,1,.35,79.3"></path><path class="cls-1" d="M11.58,75.37c-.1,0-.11,0-.15.11l-.87,2.22a3,3,0,0,0-.24,1c0,.29.14.47.65.47h.24c.2,0,.24.07.24.17s-.1.18-.26.18c-.54,0-1.3-.06-1.82-.06-.17,0-1,.06-1.89.06-.21,0-.3,0-.3-.18s.06-.17.19-.17l.48,0c.74-.12,1-.63,1.35-1.47l4.27-10.42c.19-.46.32-.66.48-.66s.32.16.49.53c.39.91,3.11,7.69,4.15,10.2.63,1.5,1.1,1.72,1.39,1.78a3.69,3.69,0,0,0,.62.06c.14,0,.22,0,.22.17s-.09.18-.71.18-1.76,0-3.13,0c-.3,0-.49,0-.49-.14s0-.15.21-.17a.27.27,0,0,0,.15-.37l-1.26-3.34a.17.17,0,0,0-.17-.11Zm3.49-.92c.07,0,.09,0,.07-.1l-1.54-4.2c0-.06,0-.16-.07-.16s-.08.1-.1.16l-1.57,4.18c0,.08,0,.12.05.12Z"></path><path class="cls-1" d="M21.67,71.8c0-2.51,0-3,0-3.5s-.2-.76-.55-.88a2,2,0,0,0-.6-.08c-.16,0-.26,0-.26-.19s.13-.14.39-.14c.61,0,1.73,0,2.19,0s1.47,0,2.1,0c.2,0,.33,0,.33.14s-.09.19-.26.19a2.17,2.17,0,0,0-.48.06c-.45.08-.58.31-.61.9s0,1,0,3.5v2.92c0,1.6,0,2.93.07,3.63.06.45.17.7.65.78a5.83,5.83,0,0,0,.84.06c.18,0,.26.09.26.17s-.13.18-.32.18c-1.07,0-2.19-.06-2.63-.06s-1.49.06-2.14.06c-.2,0-.31-.06-.31-.18s.06-.17.26-.17a2.16,2.16,0,0,0,.57-.06c.34-.08.43-.31.49-.8.07-.68.07-2,.07-3.61Z"></path><path class="cls-1" d="M29.32,77.28c0,1.28.24,1.67.55,1.79a2.63,2.63,0,0,0,.86.12c.18,0,.27.07.27.17s-.14.18-.37.18c-1.06,0-1.82-.06-2.11-.06s-.93.06-1.77.06c-.22,0-.37,0-.37-.18s.12-.17.26-.17a3.19,3.19,0,0,0,.75-.08c.42-.12.48-.57.5-2L28,67.28c0-.33.12-.56.28-.56s.43.25.71.54,2.65,2.85,5,5.28c1.11,1.15,3.28,3.49,3.52,3.72h.08l-.17-7.36c0-1-.17-1.31-.56-1.46a2.53,2.53,0,0,0-.85-.1c-.21,0-.26-.08-.26-.17S36,67,36.22,67c.85,0,1.72,0,2.08,0,.18,0,.79,0,1.59,0,.22,0,.37,0,.37.16s-.09.17-.28.17a1.58,1.58,0,0,0-.5.06c-.44.14-.57.43-.59,1.36L38.7,79.21c0,.37-.13.52-.26.52a.92.92,0,0,1-.66-.35c-1-1-3.07-3-4.77-4.77s-3.51-3.8-3.82-4.09h-.06Z"></path><path class="cls-1" d="M45.14,68l-2.43.06c-1,0-1.33.14-1.58.51a1.92,1.92,0,0,0-.27.56c0,.14-.08.22-.19.22s-.15-.1-.15-.28.32-1.87.35-2,.1-.31.19-.31.3.13.7.19a14.41,14.41,0,0,0,1.64.08H50A6.89,6.89,0,0,0,51.14,67c.25,0,.38-.08.44-.08s.13.1.13.35,0,1.58,0,2c0,.18-.05.27-.15.27s-.16-.07-.18-.33l0-.17c0-.43-.46-.94-1.93-1l-2.06,0v6.7c0,1.52,0,2.83.09,3.55.06.47.15.78.64.86a5.59,5.59,0,0,0,.83.06c.19,0,.26.09.26.17s-.13.18-.32.18c-1.07,0-2.17-.06-2.63-.06s-1.48.06-2.13.06c-.21,0-.32-.06-.32-.18s.06-.17.26-.17a2.19,2.19,0,0,0,.58-.06c.33-.08.42-.39.48-.88.07-.7.07-2,.07-3.53Z"></path><path class="cls-1" d="M65.64,71c.06,0,.11,0,.11-.13v-.41c0-3,0-3.51,0-4.13s-.19-1-.8-1.11a3.62,3.62,0,0,0-.73-.06c-.2,0-.31,0-.31-.18s.13-.17.39-.17c1,0,2.17.06,2.67.06s1.61-.06,2.34-.06c.26,0,.39,0,.39.17s-.11.18-.34.18a3,3,0,0,0-.53.06c-.51.1-.65.43-.69,1.11s0,1.17,0,4.13v3.43c0,1.79,0,3.33.09,4.17.06.54.17,1,.73,1a7.3,7.3,0,0,0,1,.08c.2,0,.29,0,.29.15s-.15.2-.37.2c-1.21,0-2.37-.06-2.89-.06s-1.6.06-2.32.06c-.26,0-.39-.06-.39-.2s.07-.15.29-.15a2.78,2.78,0,0,0,.67-.08c.37-.08.47-.51.54-1.07.09-.82.09-2.36.09-4.15V72.17a.1.1,0,0,0-.11-.11H58.55a.1.1,0,0,0-.11.11v1.72c0,1.79,0,3.33.09,4.17.06.54.17,1,.73,1a7.3,7.3,0,0,0,.94.08c.21,0,.3,0,.3.15s-.15.2-.37.2c-1.21,0-2.37-.06-2.89-.06s-1.6.06-2.34.06c-.24,0-.37-.06-.37-.2s.07-.15.29-.15a2.85,2.85,0,0,0,.67-.08C55.86,79,56,78.6,56,78c.09-.82.09-2.36.09-4.15V70.46c0-3,0-3.51,0-4.13s-.19-1-.8-1.11a3.62,3.62,0,0,0-.73-.06c-.2,0-.31,0-.31-.18s.13-.17.39-.17c1,0,2.17.06,2.67.06s1.61-.06,2.34-.06c.26,0,.39,0,.39.17s-.11.18-.34.18a3,3,0,0,0-.53.06c-.51.1-.65.43-.69,1.11s0,1.17,0,4.13v.41a.12.12,0,0,0,.11.13Z"></path><path class="cls-1" d="M72.49,71.8c0-2.51,0-3,0-3.5s-.19-.74-.71-.9a2.75,2.75,0,0,0-.65-.06c-.16,0-.27-.06-.27-.17S71,67,71.21,67c.85,0,1.89,0,2.35,0s4.14,0,4.46,0a6.57,6.57,0,0,0,.68-.1,2.38,2.38,0,0,1,.26-.08c.1,0,.11.08.11.16a8.29,8.29,0,0,0-.13,1.07c0,.18,0,.9-.09,1.09s0,.27-.18.27-.13-.07-.13-.21a1.48,1.48,0,0,0-.12-.6c-.12-.3-.25-.53-1.07-.61-.28,0-2.23-.08-2.56-.08-.08,0-.11.06-.11.16v4.09c0,.1,0,.18.11.18.37,0,2.48,0,2.86,0s.63-.08.77-.26.19-.21.26-.21.13.08.13.18,0,.37-.13,1.2c0,.33-.07,1-.07,1.11s0,.37-.17.37-.14,0-.14-.13,0-.39-.06-.61-.3-.58-.91-.64c-.3,0-2.15-.08-2.56-.08-.07,0-.09.08-.09.18v1.32c0,.57,0,2,0,2.46,0,1.13.53,1.38,2.2,1.38a4.28,4.28,0,0,0,1.54-.21c.41-.2.6-.55.71-1.23,0-.18.07-.25.19-.25s.14.21.14.39a12,12,0,0,1-.22,1.83c-.11.43-.26.43-.87.43-1.23,0-2.21,0-3-.06s-1.41,0-1.89,0l-.93,0c-.39,0-.8,0-1.13,0s-.31-.06-.31-.18.05-.17.26-.17a2.21,2.21,0,0,0,.57-.06c.33-.08.43-.39.48-.88.08-.7.08-2,.08-3.53Z"></path><path class="cls-1" d="M84.06,74.72c0,2.13,0,3.18.36,3.49s.91.35,2.17.35c.87,0,1.5,0,1.91-.47a2.09,2.09,0,0,0,.41-1c0-.15,0-.25.18-.25s.15.17.15.37A13.3,13.3,0,0,1,89,79.13c-.11.37-.18.45-1,.45-1.17,0-2.11,0-2.93-.06s-1.5,0-2.17,0l-.93,0c-.39,0-.8,0-1.13,0s-.32-.06-.32-.18.06-.17.26-.17a2.29,2.29,0,0,0,.58-.06c.33-.08.43-.39.48-.88.08-.7.08-2,.08-3.53V71.8c0-2.51,0-3,0-3.5s-.19-.74-.71-.9a2,2,0,0,0-.54-.06c-.18,0-.27-.06-.27-.17s.11-.16.35-.16c.76,0,1.8,0,2.24,0s1.73,0,2.36,0c.24,0,.35,0,.35.16s-.09.17-.29.17a3.47,3.47,0,0,0-.64.06c-.44.08-.57.31-.61.9s0,1,0,3.5Z"></path><path class="cls-1" d="M91.19,71.8c0-2.51,0-3,0-3.5s-.18-.74-.7-.9a2.81,2.81,0,0,0-.65-.06c-.17,0-.28-.06-.28-.17s.13-.16.37-.16c.85,0,1.89,0,2.36,0s4.13,0,4.45,0a6.43,6.43,0,0,0,.69-.1,1.53,1.53,0,0,1,.26-.08c.09,0,.11.08.11.16a6.57,6.57,0,0,0-.13,1.07c0,.18-.06.9-.1,1.09s0,.27-.18.27-.13-.07-.13-.21a1.63,1.63,0,0,0-.11-.6c-.13-.3-.26-.53-1.08-.61-.28,0-2.23-.08-2.56-.08-.07,0-.11.06-.11.16v4.09c0,.1,0,.18.11.18.37,0,2.49,0,2.86,0s.63-.08.78-.26.18-.21.26-.21.13.08.13.18,0,.37-.13,1.2c0,.33-.08,1-.08,1.11s0,.37-.16.37-.15,0-.15-.13,0-.39-.06-.61-.29-.58-.91-.64c-.29,0-2.15-.08-2.56-.08-.07,0-.09.08-.09.18v1.32c0,.57,0,2,0,2.46,0,1.13.54,1.38,2.21,1.38a4.34,4.34,0,0,0,1.54-.21c.41-.2.59-.55.7-1.23,0-.18.08-.25.19-.25s.15.21.15.39a10.9,10.9,0,0,1-.23,1.83c-.11.43-.26.43-.87.43-1.22,0-2.21,0-3-.06s-1.41,0-1.9,0l-.92,0c-.39,0-.8,0-1.14,0s-.31-.06-.31-.18,0-.17.26-.17a2.21,2.21,0,0,0,.57-.06c.34-.08.43-.39.49-.88.07-.7.07-2,.07-3.53Z"></path><path class="cls-1" d="M101.6,77.28c0,1.28.24,1.67.56,1.79a2.53,2.53,0,0,0,.85.12c.18,0,.28.07.28.17s-.15.18-.37.18c-1.06,0-1.82-.06-2.12-.06-.15,0-.93.06-1.76.06-.23,0-.37,0-.37-.18s.11-.17.26-.17a3.11,3.11,0,0,0,.74-.08c.43-.12.48-.57.5-2l.15-9.82c0-.33.11-.56.28-.56s.42.25.7.54,2.65,2.85,5,5.28c1.11,1.15,3.28,3.49,3.53,3.72h.07l-.17-7.36c0-1-.16-1.31-.55-1.46a2.56,2.56,0,0,0-.86-.1c-.2,0-.26-.08-.26-.17s.17-.16.41-.16c.85,0,1.73,0,2.08,0,.18,0,.8,0,1.6,0,.22,0,.37,0,.37.16s-.1.17-.28.17a1.52,1.52,0,0,0-.5.06c-.45.14-.58.43-.6,1.36L111,79.21c0,.37-.13.52-.26.52a.94.94,0,0,1-.67-.35c-1-1-3.06-3-4.77-4.77s-3.51-3.8-3.82-4.09h-.06Z"></path><path class="cls-1" d="M116,75.37c-.09,0-.11,0-.15.11l-.87,2.22a3,3,0,0,0-.24,1c0,.29.15.47.65.47h.24c.2,0,.24.07.24.17s-.09.18-.26.18c-.54,0-1.3-.06-1.82-.06-.17,0-1,.06-1.89.06-.21,0-.3,0-.3-.18s.06-.17.19-.17l.48,0c.74-.12,1-.63,1.35-1.47l4.27-10.42c.19-.46.32-.66.48-.66s.32.16.49.53c.39.91,3.11,7.69,4.15,10.2.63,1.5,1.1,1.72,1.4,1.78a3.58,3.58,0,0,0,.61.06c.15,0,.22,0,.22.17s-.09.18-.71.18-1.76,0-3.13,0c-.3,0-.48,0-.48-.14s0-.15.2-.17a.27.27,0,0,0,.15-.37L120,75.48a.17.17,0,0,0-.17-.11Zm3.49-.92c.07,0,.09,0,.07-.1L118,70.15c0-.06,0-.16-.07-.16s-.08.1-.1.16l-1.57,4.18c0,.08,0,.12.05.12Z"></path><path class="cls-1" d="M19.59,86.34c0-1,0-1.2,0-1.41a.33.33,0,0,0-.28-.37l-.26,0c-.07,0-.12,0-.12-.07s.06-.06.15-.06H21c1.19,0,1.4.64,1.4,1a1.48,1.48,0,0,1-.74,1.17A1.62,1.62,0,0,1,22.83,88c0,.72-.54,1.46-1.75,1.46l-.53,0h-.94l-.45,0c-.09,0-.13,0-.13-.07s0-.07.1-.07a.78.78,0,0,0,.24,0c.13,0,.17-.15.19-.35s0-.81,0-1.43Zm.86.11c0,.06,0,.07,0,.07a1.09,1.09,0,0,0,.31,0,.87.87,0,0,0,.52-.12.91.91,0,0,0,.3-.71.92.92,0,0,0-.83-1,1.19,1.19,0,0,0-.28,0c-.05,0-.06,0-.06.11Zm0,2c0,.44,0,.58.23.66a1,1,0,0,0,.47.08c.35,0,.81-.2.81-.94A1.49,1.49,0,0,0,21.34,87a.94.94,0,0,0-.57-.17h-.29s0,0,0,0Z"></path><path class="cls-1" d="M23.9,86.34V84.93c0-.23-.09-.31-.23-.36a.93.93,0,0,0-.24,0c-.07,0-.1,0-.1-.08s.05,0,.15,0h1.74c.08,0,.13,0,.13,0s0,.08-.1.08l-.2,0c-.18,0-.23.13-.25.37s0,.4,0,1.41v1.18c0,.65,0,1.19,0,1.47s.07.28.26.31a1.87,1.87,0,0,0,.34,0c.08,0,.1,0,.1.07s-.05.07-.12.07l-1.07,0-.86,0c-.08,0-.13,0-.13-.07s0-.07.11-.07a.75.75,0,0,0,.23,0c.13,0,.17-.12.19-.32s0-.81,0-1.46Z"></path><path class="cls-1" d="M27.66,87.52c0,.86,0,1.29.14,1.41s.37.15.88.15c.35,0,.6,0,.77-.19a.83.83,0,0,0,.16-.4c0-.07,0-.11.08-.11s.06.07.06.15a5.61,5.61,0,0,1-.1.77c0,.15-.07.19-.42.19s-.85,0-1.18,0H26.79l-.46,0c-.08,0-.12,0-.12-.07s0-.07.1-.07a.71.71,0,0,0,.23,0c.14,0,.18-.15.2-.35s0-.81,0-1.43V86.34c0-1,0-1.2,0-1.41a.33.33,0,0,0-.28-.37l-.22,0c-.08,0-.11,0-.11-.07s0-.06.14-.06h1.86c.1,0,.14,0,.14.06s0,.07-.12.07l-.25,0c-.18,0-.23.13-.25.37s0,.4,0,1.41Z"></path><path class="cls-1" d="M30.72,86.34V84.93c0-.23-.09-.31-.23-.36a.93.93,0,0,0-.24,0c-.07,0-.1,0-.1-.08s.05,0,.15,0H32c.08,0,.13,0,.13,0s0,.08-.1.08l-.2,0c-.18,0-.23.13-.25.37s0,.4,0,1.41v1.18c0,.65,0,1.19,0,1.47s.07.28.26.31a1.87,1.87,0,0,0,.34,0c.07,0,.1,0,.1.07s-.05.07-.12.07l-1.07,0-.86,0c-.08,0-.13,0-.13-.07s0-.07.11-.07a.75.75,0,0,0,.23,0c.13,0,.17-.12.19-.32s0-.81,0-1.46Z"></path><path class="cls-1" d="M34,88.56c0,.52.1.67.23.72a1,1,0,0,0,.34,0c.08,0,.11,0,.11.07s-.06.07-.15.07l-.85,0-.71,0c-.09,0-.15,0-.15-.07s0-.07.1-.07a1.53,1.53,0,0,0,.3,0c.17,0,.2-.23.2-.81l.06-4c0-.14.05-.23.12-.23s.17.1.28.22,1.07,1.15,2,2.13l1.43,1.51h0l-.07-3c0-.41-.06-.53-.22-.59a1.08,1.08,0,0,0-.35,0c-.08,0-.1,0-.1-.07s.07-.06.16-.06h1.49c.09,0,.15,0,.15.06s0,.07-.11.07a.82.82,0,0,0-.21,0c-.18.06-.23.18-.24.55l-.07,4.23c0,.15,0,.21-.11.21a.4.4,0,0,1-.27-.14c-.41-.4-1.24-1.23-1.93-1.93S34.08,85.94,34,85.82h0Z"></path><path class="cls-1" d="M43.66,89c0,.18,0,.19-.08.24a3.76,3.76,0,0,1-1.61.3c-1.62,0-3.06-.78-3.06-2.63a2.5,2.5,0,0,1,1.16-2.19,3.22,3.22,0,0,1,1.78-.43,7.39,7.39,0,0,1,1.17.11,4.08,4.08,0,0,0,.52.07c.08,0,.09,0,.09.08a10.72,10.72,0,0,0,0,1.1c0,.11,0,.15-.09.15s-.06,0-.07-.08a.87.87,0,0,0-.22-.55,2,2,0,0,0-1.44-.52,1.77,1.77,0,0,0-1.27.4,2,2,0,0,0-.61,1.63,2.28,2.28,0,0,0,2.3,2.49,1,1,0,0,0,.46-.07.23.23,0,0,0,.13-.24v-.62c0-.33,0-.58,0-.78a.33.33,0,0,0-.28-.37l-.26,0c-.06,0-.1,0-.1-.07s0-.06.14-.06h1.78c.09,0,.14,0,.14.06a.08.08,0,0,1-.08.07l-.18,0c-.18,0-.25.13-.26.37s0,.47,0,.8Z"></path><path class="cls-1" d="M45,86.34c0-1,0-1.2,0-1.41s-.08-.3-.29-.37l-.25,0c-.08,0-.11,0-.11-.07s0-.06.14-.06h1.84c.09,0,.14,0,.14.06s0,.07-.11.07l-.19,0c-.17,0-.23.13-.24.37s0,.4,0,1.41v.94c0,1,.18,1.36.51,1.62a1.19,1.19,0,0,0,.83.27,1.28,1.28,0,0,0,.89-.35,2.28,2.28,0,0,0,.38-1.63v-.85c0-1,0-1.2,0-1.41s-.06-.3-.28-.37l-.23,0c-.08,0-.12,0-.12-.07s.05-.06.14-.06H49.6c.09,0,.13,0,.13.06s0,.07-.11.07l-.19,0c-.18,0-.23.13-.24.37s0,.4,0,1.41v.72a2.54,2.54,0,0,1-.63,2,2,2,0,0,1-1.4.48A1.89,1.89,0,0,1,45,87.33Z"></path><path class="cls-1" d="M51,87.78s0,0-.06,0l-.35.9a1.19,1.19,0,0,0-.1.41c0,.12.06.19.27.19h.09c.09,0,.1,0,.1.07s0,.07-.1.07l-.74,0-.76,0c-.09,0-.13,0-.13-.07a.07.07,0,0,1,.08-.07h.19c.3,0,.42-.25.55-.59l1.73-4.21c.07-.19.13-.27.19-.27s.13.06.2.21c.16.37,1.26,3.11,1.68,4.13.25.6.44.69.56.71l.25,0c.06,0,.09,0,.09.07s0,.07-.29.07-.71,0-1.26,0c-.12,0-.2,0-.2,0s0-.06.08-.07a.1.1,0,0,0,.06-.15l-.51-1.35s0,0-.06,0Zm1.41-.37s0,0,0,0l-.62-1.7s0-.06,0-.06,0,0,0,.06l-.63,1.7s0,0,0,0Z"></path><path class="cls-1" d="M56.18,87.52c0,.86,0,1.29.14,1.41s.37.15.88.15c.35,0,.6,0,.77-.19a.83.83,0,0,0,.16-.4c0-.07,0-.11.08-.11s.06.07.06.15a5.61,5.61,0,0,1-.1.77c0,.15-.07.19-.42.19s-.85,0-1.18,0H55.31l-.45,0c-.09,0-.13,0-.13-.07s0-.07.1-.07a.78.78,0,0,0,.24,0c.13,0,.17-.15.19-.35s0-.81,0-1.43V86.34c0-1,0-1.2,0-1.41a.33.33,0,0,0-.28-.37l-.22,0c-.07,0-.11,0-.11-.07s0-.06.14-.06h1.86c.1,0,.14,0,.14.06s0,.07-.12.07l-.25,0c-.18,0-.23.13-.25.37s0,.4,0,1.41Z"></path><path class="cls-1" d="M61.31,86.24c0-1,0-1.21,0-1.43s-.07-.3-.28-.36a1,1,0,0,0-.27,0c-.07,0-.11,0-.11-.07s0-.06.15-.06h1c.21,0,1.69,0,1.82,0l.28,0a.45.45,0,0,1,.11,0s0,0,0,.06a2.72,2.72,0,0,0,0,.44c0,.07,0,.37,0,.45s0,.11-.08.11,0,0,0-.09a.85.85,0,0,0,0-.25c-.06-.11-.11-.21-.44-.24-.12,0-.91,0-1,0s0,0,0,.06v1.67s0,.07,0,.07,1,0,1.17,0a.45.45,0,0,0,.32-.1s.07-.09.1-.09,0,0,0,.08,0,.15,0,.49c0,.13,0,.4,0,.45s0,.15-.07.15-.06,0-.06,0,0-.16,0-.25-.12-.24-.37-.26-.88,0-1,0,0,0,0,.07v.54c0,.23,0,.8,0,1,0,.46.21.57.9.57a1.75,1.75,0,0,0,.63-.09c.16-.08.24-.22.28-.5,0-.07,0-.11.08-.11s.06.09.06.16a4.52,4.52,0,0,1-.09.75c0,.18-.11.18-.36.18-.5,0-.9,0-1.22,0H61.33l-.46,0c-.08,0-.13,0-.13-.07s0-.07.11-.07a.71.71,0,0,0,.23,0c.14,0,.18-.16.2-.35s0-.82,0-1.44Z"></path><path class="cls-1" d="M65.33,86.24V84.81c0-.23-.08-.3-.29-.36a1,1,0,0,0-.27,0c-.07,0-.11,0-.11-.07s0-.06.15-.06h2a3.52,3.52,0,0,1,2.68.77,2.44,2.44,0,0,1,.63,1.72,2.67,2.67,0,0,1-.73,1.88,3,3,0,0,1-2.24.8c-.24,0-.53,0-.79,0a6.35,6.35,0,0,0-.68,0h-.37l-.47,0c-.08,0-.12,0-.12-.07s0-.07.1-.07a.78.78,0,0,0,.24,0c.13,0,.17-.16.19-.36s0-.81,0-1.43Zm.9.75c0,.72,0,1.23,0,1.37a1.26,1.26,0,0,0,.08.48c.08.12.35.27.87.27a2,2,0,0,0,1.45-.47A2.11,2.11,0,0,0,69.21,87a2.25,2.25,0,0,0-.62-1.69,2.6,2.6,0,0,0-1.86-.64,1.44,1.44,0,0,0-.41,0,.13.13,0,0,0-.09.14V87Z"></path><path class="cls-1" d="M71.15,86.24c0-1,0-1.21,0-1.43s-.07-.3-.29-.36a.85.85,0,0,0-.25,0c-.08,0-.12,0-.12-.07s0-.06.15-.06h1.85c.1,0,.15,0,.15.06s0,.07-.11.07a.75.75,0,0,0-.2,0c-.17,0-.22.12-.24.36s0,.41,0,1.43v1c0,1,.18,1.37.5,1.64a1.29,1.29,0,0,0,.84.27,1.26,1.26,0,0,0,.9-.36,2.26,2.26,0,0,0,.38-1.65v-.85c0-1,0-1.21,0-1.43s-.07-.3-.28-.36a.88.88,0,0,0-.24,0c-.08,0-.12,0-.12-.07s0-.06.14-.06h1.57c.09,0,.14,0,.14.06s0,.07-.11.07a.69.69,0,0,0-.2,0c-.18,0-.23.12-.24.36s0,.41,0,1.43V87a2.56,2.56,0,0,1-.63,2,2,2,0,0,1-1.41.49A2.27,2.27,0,0,1,71.75,89a2.25,2.25,0,0,1-.6-1.79Z"></path><path class="cls-1" d="M77.11,88.76a2.58,2.58,0,0,1-.83-2,2.55,2.55,0,0,1,.78-1.85,2.88,2.88,0,0,1,2.11-.72,6.45,6.45,0,0,1,1,.07c.25,0,.47.09.67.11s.09,0,.09.08,0,.14,0,.38,0,.59,0,.73,0,.17-.09.17-.07-.06-.07-.15a1,1,0,0,0-.26-.63,1.8,1.8,0,0,0-1.28-.39,1.73,1.73,0,0,0-1.26.38,2.26,2.26,0,0,0-.61,1.76,2.21,2.21,0,0,0,2.07,2.37c.59,0,.92,0,1.18-.36a1,1,0,0,0,.23-.46c0-.1,0-.13.08-.13s.08.06.08.12a6.15,6.15,0,0,1-.15.9.24.24,0,0,1-.17.2,3.73,3.73,0,0,1-1.2.15,3.32,3.32,0,0,1-2.29-.73"></path><path class="cls-1" d="M82.44,87.7s0,0-.06,0l-.36.9a1.51,1.51,0,0,0-.09.42c0,.11.06.19.26.19h.1c.08,0,.1,0,.1.07s0,.07-.11.07l-.74,0-.77,0c-.09,0-.12,0-.12-.07a.06.06,0,0,1,.07-.07h.2c.3,0,.41-.26.55-.6l1.74-4.25c.08-.19.13-.27.2-.27s.13.06.2.21c.16.38,1.27,3.14,1.69,4.17.26.61.45.7.57.72l.25,0c.06,0,.09,0,.09.07s0,.07-.29.07-.71,0-1.28,0c-.12,0-.19,0-.19,0s0-.07.08-.07a.11.11,0,0,0,.06-.15l-.51-1.36s0,0-.07,0Zm1.42-.38s0,0,0,0l-.62-1.71s0-.07,0-.07,0,0,0,.07l-.65,1.71s0,0,0,0Z"></path><path class="cls-1" d="M87.14,84.7l-1,0c-.39,0-.54.06-.64.21a1,1,0,0,0-.12.23c0,.06,0,.09-.07.09s-.06,0-.06-.11.13-.77.14-.82,0-.13.08-.13a2.36,2.36,0,0,0,.28.08c.2,0,.45,0,.67,0h2.71a2.41,2.41,0,0,0,.45,0l.18,0s0,0,0,.14,0,.65,0,.82,0,.11-.06.11-.07,0-.08-.13v-.07c0-.18-.19-.39-.79-.39l-.84,0v2.74c0,.62,0,1.15,0,1.44s.07.32.26.35a1.87,1.87,0,0,0,.34,0c.08,0,.11,0,.11.07s0,.07-.13.07l-1.07,0-.88,0c-.08,0-.12,0-.12-.07s0-.07.1-.07a.78.78,0,0,0,.24,0c.13,0,.17-.16.19-.36s0-.81,0-1.43Z"></path><path class="cls-1" d="M90.86,86.24c0-1,0-1.21,0-1.43s-.08-.31-.22-.36a1,1,0,0,0-.25,0c-.06,0-.1,0-.1-.08s0,0,.16,0h1.75c.08,0,.13,0,.13,0s0,.08-.1.08a.75.75,0,0,0-.2,0c-.18,0-.24.12-.25.36s0,.41,0,1.43v1.2c0,.65,0,1.19,0,1.47s.07.29.27.32a1.87,1.87,0,0,0,.34,0c.08,0,.11,0,.11.07s-.06.07-.13.07l-1.08,0-.87,0c-.08,0-.13,0-.13-.07s0-.07.11-.07a.71.71,0,0,0,.23,0c.14,0,.18-.12.2-.32s0-.82,0-1.47Z"></path><path class="cls-1" d="M93,86.84a2.61,2.61,0,0,1,2.8-2.65,2.44,2.44,0,0,1,2.72,2.53,2.66,2.66,0,0,1-2.79,2.77A2.58,2.58,0,0,1,93,86.84m4.53.13c0-1.5-.86-2.42-1.93-2.42-.74,0-1.61.41-1.61,2.08,0,1.39.75,2.49,2,2.49.47,0,1.53-.23,1.53-2.15"></path><path class="cls-1" d="M99.94,88.48c0,.52.1.68.23.73a1.06,1.06,0,0,0,.35.05c.07,0,.11,0,.11.07s-.06.07-.15.07c-.43,0-.74,0-.86,0l-.72,0c-.09,0-.16,0-.16-.07s.05-.07.11-.07a1,1,0,0,0,.3,0c.18,0,.2-.23.21-.81l.06-4c0-.14,0-.23.11-.23s.18.1.29.22,1.08,1.16,2.05,2.16c.46.46,1.34,1.42,1.44,1.51h0l-.07-3c0-.42-.06-.54-.22-.6a1.08,1.08,0,0,0-.35,0c-.08,0-.11,0-.11-.07s.07-.06.17-.06h1.5c.09,0,.15,0,.15.06s0,.07-.11.07a.56.56,0,0,0-.21,0c-.18,0-.23.17-.24.55l-.08,4.26c0,.16,0,.22-.1.22a.36.36,0,0,1-.27-.14c-.42-.41-1.25-1.24-2-2s-1.43-1.55-1.56-1.67h0Z"></path><path class="cls-2" d="M62.43,6.59a2.38,2.38,0,0,0,.08,1.46c.09.21.17.42.27.61.37.74.85,1.18,1.47,1.07A2.36,2.36,0,0,0,66.1,8.28a.65.65,0,0,0,0-.75A1.15,1.15,0,0,1,66,6.47c.14-.38.39-.54.68-.42s.39.4.4.81-.11.81-.38.93-.26.28-.28.58a4.51,4.51,0,0,0,.54,2.5c.26.51.78.69,1,.4a2.16,2.16,0,0,0-.2-1.52.88.88,0,0,0-.88-.5c.41-.74.91-.83,1.85-.36A2.55,2.55,0,0,1,71.35,7,15.91,15.91,0,0,0,68,15.35H56.34c-.24,0-.34-.09-.39-.5a15.64,15.64,0,0,0-2.47-6.67c-.25-.38-.51-.74-.78-1.13a2.47,2.47,0,0,1,2.59,1.85,1.22,1.22,0,0,1,1.27-.24,1.85,1.85,0,0,1,.58.52,1.08,1.08,0,0,0-1,.78,2.35,2.35,0,0,0-.11,1.3c.34.19.66.11.91-.32a4.33,4.33,0,0,0,.55-3A2.65,2.65,0,0,1,57,7.52a1.21,1.21,0,0,1,0-1.27.44.44,0,0,1,.77,0,1.17,1.17,0,0,1,.07,1.23.81.81,0,0,0,0,1,2.41,2.41,0,0,0,1.74,1.29c.86.1,1.63-.75,1.9-2.06a6.26,6.26,0,0,0,0-1.08l-.6.15c-.32.06-.57-.16-.73-.6a1.59,1.59,0,0,1,.06-1.25.61.61,0,0,1,.79-.4,1,1,0,0,1,.26.14,3.73,3.73,0,0,1-.1-2.44c.18-.74.42-1.44.65-2.19a6.34,6.34,0,0,1,.68,4.61c.39-.2.77-.3,1,.32a1.54,1.54,0,0,1,.05,1.21c-.31.82-.79.62-1.28.45"></path><path class="cls-2" d="M61.91,16.21h5.75a.5.5,0,0,1,.36.13.76.76,0,0,1,.22.8,2.4,2.4,0,0,1-.5.7s-.13,0-.2,0H56.18c-.36,0-.57-.31-.57-.85s.21-.8.58-.8h5.72"></path><path class="cls-1" d="M47.31,27.19a1.05,1.05,0,0,1-1.34.27A1,1,0,0,1,45.75,26a4.27,4.27,0,0,0-1-.16s-.89,2.05.34,3a2.65,2.65,0,0,0,2.53.06,3.24,3.24,0,0,0-.36-1.63"></path><path class="cls-1" d="M48.76,27.13a1.18,1.18,0,0,0,1.26.29,1,1,0,0,0,.16-1.56,2.12,2.12,0,0,1,.56-.19s1.42,1.72.06,3a2.18,2.18,0,0,1-2.31.24,11.49,11.49,0,0,0,.27-1.76"></path><path class="cls-1" d="M44.74,25.48s2.73-.19,3.08,2.16h.41a2.78,2.78,0,0,1,2.39-2.47l.86-.82L50,24.56a10.48,10.48,0,0,0-2.18-.29,6.44,6.44,0,0,0-2.29.55A1.94,1.94,0,0,0,44,24.27Z"></path><path class="cls-1" d="M44.78,29.3s-4,5.78-3.75,9a4.21,4.21,0,0,0,1.71-2s-1.31,2.46-1.83,3.24c.81.49,2.44-1.82,2.65-2.45.59.79-2.12,3-2.63,3.68,1.66-.25,3.29-2.28,3.33-2.41-.29,1.29-3.43,3.21-4,4,2.63-.23,5.44-4.15,6.74-7,1.39-3.08.57-5.69-1.38-4.9,2.17-1.88,5.91,4.36-3.15,11.4l-1.66,4.43.5.59,1.57-3.93-1,4.2h.53l1-3.37L43,47l1.2-2.57L44,46.94l.27-.1.82-3.63,1,1.78v2.15a1.8,1.8,0,0,1-.7.36c-.41.1-.15.73,1,.23.45-.2,1.26.2,1.67.25,0,0,.5-.25.37-.71s-1,.33-1.57-1.09.5-4.2.91-4.63S52.12,35,51,30.62c0,0-.31-1,0-1.32,0,0-1.95,1-3-.29,0,0-1.78,1.26-3.23.29"></path><polygon class="cls-1" points="47.82 27.93 48.02 28.54 48.23 27.93 47.82 27.93"></polygon><path class="cls-1" d="M47.14,26.84a.68.68,0,0,1-.87.18c-.45-.3-.25-.72-.11-1a1.59,1.59,0,0,1,.57.33c.13.13.41.45.41.45"></path><path class="cls-1" d="M49,26.85a.68.68,0,0,0,.87.16.63.63,0,0,0,.09-1,1.58,1.58,0,0,0-.55.35c-.14.13-.41.45-.41.45"></path><path class="cls-1" d="M76.73,27.43a1,1,0,0,0,1.34.28,1,1,0,0,0,.22-1.52,4.18,4.18,0,0,1,.94-.16s.89,2.06-.33,3a2.68,2.68,0,0,1-2.53.06,3.27,3.27,0,0,1,.36-1.64"></path><path class="cls-1" d="M75.28,27.38a1.21,1.21,0,0,1-1.27.28,1,1,0,0,1-.16-1.56,1.89,1.89,0,0,0-.56-.19s-1.41,1.73-.05,3a2.18,2.18,0,0,0,2.31.24,11.5,11.5,0,0,1-.27-1.75"></path><path class="cls-1" d="M79.3,25.73s-2.73-.19-3.08,2.15h-.41a2.78,2.78,0,0,0-2.39-2.47l-.86-.82,1.43.22a10.32,10.32,0,0,1,2.19-.3,6.44,6.44,0,0,1,2.29.55A1.94,1.94,0,0,1,80,24.51Z"></path><path class="cls-1" d="M79.25,29.54s4,5.78,3.76,9a4.2,4.2,0,0,1-1.71-2s1.31,2.46,1.83,3.25c-.81.48-2.44-1.82-2.65-2.45-.59.78,2.11,3,2.63,3.67-1.66-.25-3.29-2.28-3.33-2.41.29,1.29,3.43,3.21,4,4-2.63-.22-5.44-4.15-6.75-7-1.38-3.08-.56-5.69,1.39-4.9-2.17-1.88-5.91,4.37,3.14,11.4l1.67,4.43-.5.59-1.57-3.93,1,4.2h-.53l-1-3.37L81,47.25l-1.2-2.58L80,47.18l-.27-.1-.82-3.63-1,1.78v2.15a1.8,1.8,0,0,0,.7.36c.41.1.15.73-1,.23-.45-.2-1.26.2-1.67.25,0,0-.5-.25-.37-.71s1,.33,1.57-1.09-.5-4.2-.91-4.62S71.92,35.22,73,30.86c0,0,.32-1,0-1.32,0,0,2,1,3-.29,0,0,1.79,1.27,3.23.29"></path><polygon class="cls-1" points="76.22 28.18 76.01 28.78 75.81 28.17 76.22 28.18"></polygon><path class="cls-1" d="M76.9,27.08a.68.68,0,0,0,.87.18c.45-.3.25-.72.11-1a1.72,1.72,0,0,0-.57.34,5.55,5.55,0,0,0-.41.44"></path><path class="cls-1" d="M75.07,27.1a.68.68,0,0,1-.87.15c-.44-.3-.23-.72-.08-1a1.58,1.58,0,0,1,.55.35,5.76,5.76,0,0,1,.4.46"></path><path class="cls-1" d="M47,54.89l-.1,0-.1-.05-.09,0-.1-.05-.09,0-.08,0-.09,0-.08,0-.07,0-.08,0-.07,0-.06,0-.07,0-.06,0-.06,0-.05,0,0,0,0,0-.05,0,0,0,0,0h0l0,0h0l0,0h0l-.06,0h0v0l-.08-.07a1.53,1.53,0,0,0-1-.54h-.16l-.06,0h0l0,0h0l0,0h0s0,0,0,0h0v.11h0s0,0,0,.06v0a.64.64,0,0,1,0,.07h0a.25.25,0,0,0,0,.07h0l0,.08v0L44,54a1.84,1.84,0,0,0,1.24.74l.16,0h.06l.1,0,.06,0,.08,0,.06,0,.08,0,0,0L46,55,46,55l.07,0h0l.07,0,0,0,.09.05h0l.09,0,0,0,.06,0,0,0,0,0,0,0,0,0,0,0,0,0,0,0,0,0,0,0,0,0h0l0,0c.07-.23.14-.49.21-.71l-.05,0"></path><path class="cls-1" d="M35.24,47.44a3.45,3.45,0,0,0-.57,0,5.29,5.29,0,0,0-2.06.5,2.61,2.61,0,0,1,1,.29,4.78,4.78,0,0,1,1,.69h0v0a1.71,1.71,0,0,0,.19.21l.65.64h0c1,1.06,2.33,2.42,2.47,2.57s.85.71,1.89,1.48c3.31,2.45,5,3,5.81,3a1,1,0,0,0,1.06-.66h0v0h0v0h0v-.06h0l0,0h0s0,0,0,0h0l0,0,0,0h0l0,0v0l0,0,0,0,0,0,0,0,0,0h0l0,0h0l0,0h0l0,0,0,0,0,0,0,0,0,0,0,0,0,0,0,0,0,0-.05,0-.06,0,0,0-.07,0,0,0-.07,0h0l-.09,0h0l-.14,0a2.15,2.15,0,0,1-1.43-.88,1.24,1.24,0,0,1-.17-.5l-.16.15.17-.54h0a.79.79,0,0,1,0-.15h0v0h0s0,0,0,0v0l0,0v0l0,0s0,0,0,0v0s0,0,0,0,0,0,0,0l0,0v0l0-.07v0c0-.14.1-.29.16-.45v0l0-.08v0l0-.08,0,0,0-.07,0,0,0-.07,0-.05a.19.19,0,0,1,0-.07s0,0,0-.05l0-.08,0-.05,0-.07a.14.14,0,0,1,0-.06l0-.07,0-.06a.19.19,0,0,1,0-.07l0-.06,0-.08,0,0,0-.08,0-.05,0-.08v0a2.29,2.29,0,0,1,.1-.23A16.55,16.55,0,0,1,40,46.46h0l-.09-.11a14.07,14.07,0,0,1-2-3.33c-.17,1.29-.43,4,.19,5l.08.14-.23.14-.07,0a10.9,10.9,0,0,0-2.65-.89"></path><path class="cls-1" d="M60.89,58.22l.53,0h0a8.69,8.69,0,0,0,1.25,0h0l.53,0a38.4,38.4,0,0,0,13.58-3.54h0a19.13,19.13,0,0,0,1.79-1l.17-.16A1.71,1.71,0,0,1,80,53h.21v0l0-.06a0,0,0,0,1,0,0,.42.42,0,0,1,0-.1v0l0-.08s0,0,0,0l0-.12v0a.76.76,0,0,1,0-.11.08.08,0,0,1,0,0,.78.78,0,0,1,0-.14h0a1.21,1.21,0,0,0,0-.14s0,0,0,0l-.06-.16h0l-.06-.16v0c0-.11-.08-.22-.13-.34v0c0-.12-.09-.23-.13-.36l0,0c0-.12-.09-.24-.14-.36v0l-.08-.18c-.92-2.24-1.34-2.6-1.48-2.65h0a13.94,13.94,0,0,0-2.75,1c-.93.39-2,.83-3.08,1.23A33.37,33.37,0,0,1,62.23,52h-.29A33.44,33.44,0,0,1,52.35,50c-1.09-.4-2.15-.84-3.08-1.23a14.16,14.16,0,0,0-2.74-1h-.05c-.14,0-.57.41-1.49,2.65h0v0l-.06.16,0,0-.06.16h0l-.06.17,0,0-.06.15a0,0,0,0,0,0,0l-.06.16,0,0-.06.14v0c0,.06,0,.11-.05.16l0,.05s0,.09-.05.13v0a.88.88,0,0,0,0,.15l0,0s0,.07,0,.11v0l-.05.13s0,0,0,0l0,.1v0a.56.56,0,0,0,0,.12l0,0,0,.07,0,0a.46.46,0,0,1,0,.09s0,0,0,0,0,0,0,.05v0h.22a1.91,1.91,0,0,1,1.3.69s.26.16.6.35.69.37,1.19.61a38.27,38.27,0,0,0,13.58,3.54"></path><path class="cls-1" d="M77.32,55.62l0,0a0,0,0,0,0,0,0l0,0,0,0,0,0,0,0,0,0,0,0,0,0,0,0,0,0,0,0,0,0,0,0,.08,0h0l.07,0,0,0,.07,0,0,0a.15.15,0,0,0,.07,0l0,0,.07,0,.06,0,.07,0,.06,0,.09,0,.06,0,.1,0h.05l.17,0A1.93,1.93,0,0,0,80.17,54s0-.05,0-.08v0l0-.08h0a.14.14,0,0,1,0-.07h0s0,0,0-.07v0a.13.13,0,0,0,0-.06h0v-.05h0v0h0v0h0l0,0h0l0,0h0l-.06,0H80a1.6,1.6,0,0,0-1,.54l-.07.07,0,0h0l-.12.07h0l-.06,0h0l-.06,0,0,0-.06,0,0,0-.07,0,0,0-.07,0,0,0-.08,0,0,0-.09,0-.06,0-.09.05-.06,0-.1,0-.07,0-.1.06-.09,0-.1,0-.09,0-.11.06,0,0c.06.22.13.48.2.71h0"></path><path class="cls-1" d="M84.33,53.81c1-.77,1.8-1.41,1.88-1.48s1.42-1.5,2.48-2.57h0l.66-.64c.07-.07.13-.15.18-.21v0h0a4.74,4.74,0,0,1,1-.69,2.66,2.66,0,0,1,1-.29,5.2,5.2,0,0,0-2-.5,3.58,3.58,0,0,0-.58,0,12.22,12.22,0,0,0-2.65.88l-.07,0L86,48.22l.08-.14c.59-1,.38-3.59.18-5.06a13.87,13.87,0,0,1-2,3.34l-.09.11h0a16.71,16.71,0,0,1-4.64,3.95l.15.38v0l0,.1v0l0,.09s0,0,0,0l0,.09s0,0,0,.05l0,.08s0,0,0,0l0,.08s0,0,0,.05,0,0,0,.08,0,0,0,.05l0,.07,0,.05s0,0,0,.07,0,0,0,0l0,.07s0,0,0,.05a.14.14,0,0,0,0,.06l0,.06s0,0,0,0a.64.64,0,0,0,0,.07s0,0,0,0l0,.09v0l0,.1v0l0,.08v0l0,.07v0a.14.14,0,0,0,0,.07h0a.24.24,0,0,0,0,.08h0c.1.27.16.45.17.48h0l.19.58-.17-.17a1.18,1.18,0,0,1-.18.49,2.15,2.15,0,0,1-1.43.88l-.14,0h0l-.09,0h0l-.07,0,0,0-.06,0,0,0-.06,0,0,0-.06,0,0,0,0,0,0,0,0,0,0,0,0,0,0,0,0,0,0,0,0,0h0l0,0s0,0,0,0l0,0s0,0,0,0l0,0,0,0,0,0,0,0a0,0,0,0,0,0,0l0,0,0,0h0l0,0v0a0,0,0,0,0,0,0h0v0h0v0h0s0,0,0,0h0v0h0v0h0a1,1,0,0,0,1.06.66c.82,0,2.5-.51,5.82-3"></path><path class="cls-1" d="M72.36,20H51.82a17.26,17.26,0,0,1,.71,3.42c.27,3.74.1,8.73.1,12.82v4.38s6.85,7.19,9.46,9.5c2.6-2.31,9.45-9.5,9.45-9.5V36.28c0-4.09-.17-9.08.11-12.82A17.26,17.26,0,0,1,72.36,20m-3,18.74c-1.17,0-2.32-.06-2.83-.06s-1.55.06-2.26.06c-.26,0-.38-.06-.38-.19s.07-.15.29-.15a2.66,2.66,0,0,0,.65-.08c.36-.08.45-.49.53-1,.09-.8.09-2.3.09-4.05V31.58a.11.11,0,0,0-.11-.11H58.44c-.06,0-.11,0-.11.11v1.68c0,1.75,0,3.25.09,4.07.06.54.16,1,.71,1a6.84,6.84,0,0,0,.92.08c.2,0,.29.05.29.15s-.14.19-.36.19c-1.18,0-2.32-.06-2.83-.06s-1.56.06-2.28.06c-.24,0-.37-.06-.37-.19s.08-.15.29-.15a2.75,2.75,0,0,0,.66-.08c.36-.08.45-.49.52-1,.09-.8.09-2.3.09-4.05V29.91c0-2.9,0-3.43,0-4s-.18-.95-.78-1.09a4.53,4.53,0,0,0-.71-.05c-.2,0-.31,0-.31-.17s.13-.18.38-.18c1,0,2.12.06,2.61.06s1.58-.06,2.29-.06c.25,0,.38,0,.38.18s-.11.17-.33.17a4,4,0,0,0-.52.05c-.49.1-.64.42-.67,1.09s0,1.14,0,4v.4c0,.09.05.13.11.13h6.93a.12.12,0,0,0,.11-.13v-.4c0-2.9,0-3.43,0-4s-.18-.95-.78-1.09a4.34,4.34,0,0,0-.71-.05c-.2,0-.31,0-.31-.17s.13-.18.39-.18c1,0,2.12.06,2.61.06s1.58-.06,2.28-.06c.26,0,.38,0,.38.18s-.1.17-.32.17a4,4,0,0,0-.53.05c-.49.1-.63.42-.67,1.09s0,1.14,0,4v3.35c0,1.75,0,3.25.09,4.07.06.54.17,1,.71,1a7.14,7.14,0,0,0,.93.08c.2,0,.29.05.29.15s-.15.19-.37.19"></path></g></g></svg>