<svg xmlns="http://www.w3.org/2000/svg" xmlns:xlink="http://www.w3.org/1999/xlink" viewBox="0 0 125.2 89.56"><defs><style>.cls-1{fill:none;}.cls-2{clip-path:url(#clip-path);}.cls-3,.cls-5{fill:#001881;}.cls-4{fill:#e0040b;}.cls-5{fill-rule:evenodd;}</style><clipPath id="clip-path" transform="translate(-2.5 -1.94)"><rect class="cls-1" width="129.86" height="94.45"></rect></clipPath></defs><g id="Camada_2" data-name="Camada 2"><g id="Camada_1-2" data-name="Camada 1"><g class="cls-2"><g class="cls-2"><path class="cls-3" d="M2.85,81.24c-.3-.14-.35-.24-.35-.66,0-1.08.07-2.25.09-2.56s.07-.5.22-.5.19.17.19.33a4.4,4.4,0,0,0,.16,1,2.58,2.58,0,0,0,2.66,2A2.29,2.29,0,0,0,8.3,78.59c0-1-.27-1.85-1.81-3.12l-.86-.7c-2-1.68-2.74-3-2.74-4.62,0-2.14,1.7-3.68,4.28-3.68a8.81,8.81,0,0,1,2.47.33c.17,0,.26.1.26.24s-.07.81-.07,2.33c0,.43-.06.59-.21.59s-.18-.12-.18-.35A2.47,2.47,0,0,0,9,68.32a2.29,2.29,0,0,0-2-.95,2,2,0,0,0-2.21,2c0,.9.43,1.58,2,2.81l.52.41c2.24,1.77,3,3.12,3,5A4,4,0,0,1,8.51,81a5.19,5.19,0,0,1-2.95.79,6.16,6.16,0,0,1-2.71-.5" transform="translate(-2.5 -1.94)"></path><path class="cls-3" d="M14.07,77.3c-.09,0-.11,0-.14.12l-.88,2.22a3.34,3.34,0,0,0-.24,1c0,.3.15.47.65.47h.24c.21,0,.24.08.24.18s-.09.17-.26.17c-.53,0-1.29-.06-1.81-.06-.17,0-1,.06-1.9.06-.2,0-.29,0-.29-.17a.16.16,0,0,1,.18-.18l.48,0c.75-.12,1-.62,1.36-1.46L16,69.22c.18-.47.31-.66.48-.66s.31.15.48.52c.39.92,3.12,7.7,4.16,10.21.63,1.5,1.09,1.71,1.39,1.77a3.67,3.67,0,0,0,.61.06c.15,0,.22.06.22.18s-.09.17-.7.17-1.76,0-3.14,0c-.29,0-.48,0-.48-.13s0-.16.21-.18a.26.26,0,0,0,.14-.37l-1.26-3.33a.15.15,0,0,0-.16-.12Zm3.49-.91c.08,0,.1,0,.08-.1L16.1,72.08c0-.06,0-.15-.08-.15s-.07.09-.09.15l-1.58,4.19c0,.08,0,.12.06.12Z" transform="translate(-2.5 -1.94)"></path><path class="cls-3" d="M24.17,73.74c0-2.52,0-3,0-3.51s-.21-.76-.56-.88a2.27,2.27,0,0,0-.59-.07c-.17,0-.26,0-.26-.2s.13-.13.39-.13l2.19,0,2.09,0c.21,0,.34,0,.34.13s-.09.2-.26.2a2,2,0,0,0-.48.06c-.45.07-.58.31-.62.89s0,1,0,3.51v2.92c0,1.6,0,2.92.07,3.62.06.45.17.7.65.78a5.63,5.63,0,0,0,.84.06c.18,0,.25.1.25.18s-.12.17-.31.17c-1.08,0-2.19-.06-2.63-.06s-1.49.06-2.14.06c-.2,0-.31-.06-.31-.17s0-.18.26-.18a2.21,2.21,0,0,0,.57-.06c.33-.08.43-.31.48-.8.08-.68.08-2,.08-3.6Z" transform="translate(-2.5 -1.94)"></path><path class="cls-3" d="M31.81,79.21c0,1.29.24,1.68.56,1.79a2.57,2.57,0,0,0,.85.12c.19,0,.28.08.28.18s-.15.17-.37.17c-1.06,0-1.82-.06-2.12-.06-.14,0-.92.06-1.76.06-.22,0-.37,0-.37-.17s.11-.18.26-.18a3.11,3.11,0,0,0,.74-.08c.43-.11.48-.56.5-2l.15-9.82c0-.33.11-.57.28-.57s.43.26.7.55,2.66,2.84,5,5.28c1.12,1.15,3.29,3.48,3.53,3.72h.07L40,70.84c0-1-.17-1.31-.56-1.47a2.8,2.8,0,0,0-.85-.09c-.21,0-.26-.08-.26-.18s.16-.15.4-.15c.86,0,1.73,0,2.08,0,.19,0,.8,0,1.6,0,.22,0,.37,0,.37.15s-.09.18-.28.18a1.52,1.52,0,0,0-.5.06c-.45.13-.58.42-.59,1.36L41.2,81.14c0,.37-.13.53-.26.53a1,1,0,0,1-.67-.35c-1-1-3.06-3-4.77-4.78s-3.5-3.8-3.82-4.09h-.05Z" transform="translate(-2.5 -1.94)"></path><path class="cls-3" d="M47.64,70,45.21,70c-1,0-1.34.13-1.58.5a2,2,0,0,0-.28.57c0,.13-.07.21-.18.21S43,71.21,43,71s.31-1.87.35-2,.09-.31.19-.31.29.14.7.2,1.1.07,1.63.07h6.63a6.93,6.93,0,0,0,1.11-.07c.26,0,.39-.08.45-.08s.13.1.13.35,0,1.58,0,2c0,.17-.06.27-.15.27s-.17-.08-.18-.33l0-.18c0-.43-.47-.93-1.93-1l-2.06,0v6.7c0,1.52,0,2.82.09,3.55.06.46.15.77.63.85a5.63,5.63,0,0,0,.84.06c.18,0,.26.1.26.18s-.13.17-.32.17c-1.08,0-2.17-.06-2.63-.06s-1.49.06-2.14.06c-.2,0-.31-.06-.31-.17s0-.18.26-.18a2.1,2.1,0,0,0,.57-.06c.34-.08.43-.39.48-.87.08-.71.08-2,.08-3.53Z" transform="translate(-2.5 -1.94)"></path><path class="cls-3" d="M68.14,72.94s.11,0,.11-.14v-.41c0-3,0-3.5,0-4.13s-.18-1-.8-1.11a3.45,3.45,0,0,0-.72-.06c-.2,0-.31,0-.31-.17s.13-.18.38-.18c1,0,2.18.06,2.68.06s1.61-.06,2.33-.06c.26,0,.39,0,.39.18s-.11.17-.33.17a3.15,3.15,0,0,0-.54.06c-.5.1-.65.43-.68,1.11s0,1.17,0,4.13v3.43c0,1.79,0,3.33.09,4.17.06.55.17,1,.73,1.05a7,7,0,0,0,.94.08c.21,0,.3.06.3.16s-.15.19-.37.19c-1.21,0-2.38-.06-2.9-.06s-1.59.06-2.32.06c-.26,0-.39-.06-.39-.19s.08-.16.3-.16a2.85,2.85,0,0,0,.67-.08c.37-.08.46-.5.54-1.07.09-.82.09-2.36.09-4.15V74.11a.11.11,0,0,0-.11-.12H61.05c-.06,0-.11,0-.11.12v1.71c0,1.79,0,3.33.09,4.17.06.55.17,1,.72,1.05a7.3,7.3,0,0,0,1,.08c.21,0,.3.06.3.16s-.15.19-.37.19c-1.21,0-2.38-.06-2.9-.06s-1.59.06-2.34.06c-.24,0-.37-.06-.37-.19s.08-.16.3-.16A2.85,2.85,0,0,0,58,81c.37-.08.46-.5.54-1.07.09-.82.09-2.36.09-4.15V72.39c0-3,0-3.5,0-4.13s-.18-1-.8-1.11a3.45,3.45,0,0,0-.72-.06c-.2,0-.32,0-.32-.17s.13-.18.39-.18c1,0,2.18.06,2.68.06s1.61-.06,2.33-.06c.26,0,.39,0,.39.18s-.11.17-.33.17a3,3,0,0,0-.54.06c-.5.1-.65.43-.68,1.11s0,1.17,0,4.13v.41c0,.1.05.14.11.14Z" transform="translate(-2.5 -1.94)"></path><path class="cls-3" d="M75,73.74c0-2.52,0-3,0-3.51s-.19-.74-.71-.89a2.81,2.81,0,0,0-.65-.06c-.17,0-.28-.06-.28-.18s.13-.15.37-.15c.86,0,1.9,0,2.36,0s4.14,0,4.45,0,.56-.07.69-.09a1.86,1.86,0,0,1,.26-.08c.09,0,.11.08.11.15A8.65,8.65,0,0,0,81.44,70c0,.17,0,.89-.09,1.09s-.06.27-.19.27-.13-.08-.13-.21a1.71,1.71,0,0,0-.11-.61c-.13-.29-.26-.52-1.08-.6-.27,0-2.22-.08-2.56-.08-.07,0-.11.06-.11.16v4.09c0,.09,0,.17.11.17.38,0,2.49,0,2.86,0s.63-.07.78-.25.19-.21.26-.21.13.07.13.17,0,.37-.13,1.21c0,.33-.07,1-.07,1.11s0,.37-.17.37-.15-.06-.15-.14,0-.39-.05-.6-.3-.59-.91-.64c-.3,0-2.16-.08-2.56-.08-.08,0-.1.08-.1.17v1.33c0,.56,0,2,0,2.45,0,1.13.54,1.39,2.21,1.39a4.11,4.11,0,0,0,1.54-.22c.41-.19.6-.54.71-1.23,0-.17.07-.25.18-.25s.15.22.15.39a12,12,0,0,1-.22,1.83c-.11.43-.26.43-.87.43-1.23,0-2.21,0-3-.06s-1.41,0-1.89,0l-.93,0c-.39,0-.8,0-1.13,0s-.32-.06-.32-.17.06-.18.26-.18a2.29,2.29,0,0,0,.58-.06c.33-.08.42-.39.48-.87.07-.71.07-2,.07-3.53Z" transform="translate(-2.5 -1.94)"></path><path class="cls-3" d="M86.56,76.66c0,2.12,0,3.17.35,3.49s.91.35,2.17.35c.88,0,1.51,0,1.92-.47a2,2,0,0,0,.4-1c0-.16.06-.26.19-.26s.15.18.15.37a13,13,0,0,1-.24,1.91c-.11.37-.19.45-1,.45-1.17,0-2.12,0-2.93-.06s-1.51,0-2.17,0l-.93,0c-.39,0-.8,0-1.13,0S83,81.41,83,81.3s.06-.18.26-.18a2.16,2.16,0,0,0,.57-.06c.34-.08.43-.39.49-.87.07-.71.07-2,.07-3.53V73.74c0-2.52,0-3,0-3.51a.8.8,0,0,0-.7-.9,2.68,2.68,0,0,0-.54,0c-.19,0-.28-.06-.28-.18s.11-.15.35-.15c.77,0,1.8,0,2.25,0l2.36,0c.24,0,.35,0,.35.15s-.09.18-.3.18a4.58,4.58,0,0,0-.63,0c-.44.08-.57.32-.61.9s0,1,0,3.51Z" transform="translate(-2.5 -1.94)"></path><path class="cls-3" d="M93.69,73.74c0-2.52,0-3,0-3.51s-.19-.74-.71-.89a2.81,2.81,0,0,0-.65-.06c-.16,0-.28-.06-.28-.18s.13-.15.38-.15c.85,0,1.89,0,2.35,0s4.14,0,4.46,0,.55-.07.68-.09a2.38,2.38,0,0,1,.26-.08c.09,0,.11.08.11.15a8.65,8.65,0,0,0-.13,1.08c0,.17,0,.89-.09,1.09s0,.27-.19.27-.13-.08-.13-.21a1.52,1.52,0,0,0-.11-.61c-.13-.29-.26-.52-1.07-.6-.28,0-2.23-.08-2.56-.08-.08,0-.11.06-.11.16v4.09c0,.09,0,.17.11.17.37,0,2.48,0,2.85,0s.64-.07.78-.25.19-.21.26-.21.13.07.13.17,0,.37-.13,1.21c0,.33-.07,1-.07,1.11s0,.37-.17.37-.15-.06-.15-.14a4.54,4.54,0,0,0,0-.6c-.09-.33-.3-.59-.91-.64-.3,0-2.15-.08-2.56-.08-.08,0-.09.08-.09.17v1.33c0,.56,0,2,0,2.45,0,1.13.53,1.39,2.2,1.39a4.08,4.08,0,0,0,1.54-.22c.41-.19.6-.54.71-1.23,0-.17.07-.25.18-.25s.15.22.15.39a12,12,0,0,1-.22,1.83c-.11.43-.26.43-.87.43-1.23,0-2.21,0-3-.06s-1.41,0-1.89,0l-.93,0c-.39,0-.8,0-1.13,0s-.32-.06-.32-.17.06-.18.26-.18a2.24,2.24,0,0,0,.58-.06c.33-.08.43-.39.48-.87.08-.71.08-2,.08-3.53Z" transform="translate(-2.5 -1.94)"></path><path class="cls-3" d="M104.09,79.21c0,1.29.25,1.68.56,1.79a2.6,2.6,0,0,0,.85.12c.19,0,.28.08.28.18s-.15.17-.37.17c-1.06,0-1.82-.06-2.11-.06s-.93.06-1.77.06c-.22,0-.37,0-.37-.17s.11-.18.26-.18a3.19,3.19,0,0,0,.75-.08c.42-.11.48-.56.5-2l.14-9.82c0-.33.12-.57.28-.57s.43.26.71.55,2.65,2.84,5,5.28c1.11,1.15,3.28,3.48,3.52,3.72h.08l-.17-7.36c0-1-.17-1.31-.56-1.47a2.8,2.8,0,0,0-.85-.09c-.2,0-.26-.08-.26-.18s.17-.15.41-.15c.85,0,1.72,0,2.08,0,.18,0,.79,0,1.59,0,.22,0,.37,0,.37.15s-.09.18-.28.18a1.58,1.58,0,0,0-.5.06c-.44.13-.57.42-.59,1.36l-.19,10.44c0,.37-.13.53-.26.53a1,1,0,0,1-.66-.35c-1-1-3.07-3-4.77-4.78s-3.51-3.8-3.83-4.09h0Z" transform="translate(-2.5 -1.94)"></path><path class="cls-3" d="M118.46,77.3c-.1,0-.12,0-.15.12l-.88,2.22a3.34,3.34,0,0,0-.24,1c0,.3.15.47.65.47h.24c.21,0,.25.08.25.18s-.1.17-.26.17c-.54,0-1.3-.06-1.82-.06-.17,0-1,.06-1.89.06-.21,0-.3,0-.3-.17a.16.16,0,0,1,.18-.18l.49,0c.74-.12,1-.62,1.35-1.46l4.27-10.42c.18-.47.31-.66.48-.66s.32.15.48.52c.39.92,3.12,7.7,4.16,10.21.63,1.5,1.09,1.71,1.39,1.77a3.67,3.67,0,0,0,.61.06c.15,0,.23.06.23.18s-.1.17-.71.17-1.76,0-3.13,0c-.3,0-.49,0-.49-.13s0-.16.21-.18a.27.27,0,0,0,.15-.37l-1.27-3.33a.15.15,0,0,0-.16-.12Zm3.48-.91c.08,0,.1,0,.08-.1l-1.54-4.21c0-.06,0-.15-.08-.15s-.07.09-.09.15l-1.58,4.19c0,.08,0,.12.06.12Z" transform="translate(-2.5 -1.94)"></path><path class="cls-4" d="M22.09,88.28c0-1,0-1.21,0-1.42s-.08-.3-.28-.36a1,1,0,0,0-.27,0c-.07,0-.11,0-.11-.07s0-.06.15-.06l.89,0,1,0c1.2,0,1.41.65,1.41,1a1.47,1.47,0,0,1-.75,1.17A1.66,1.66,0,0,1,25.33,90c0,.72-.54,1.46-1.76,1.46l-.52,0-.57,0h-.37l-.46,0c-.08,0-.13,0-.13-.08s0-.07.11-.07a.75.75,0,0,0,.23,0c.14,0,.17-.16.2-.35s0-.82,0-1.43Zm.85.11a.07.07,0,0,0,0,.07,1.16,1.16,0,0,0,.31,0,.84.84,0,0,0,.51-.11.89.89,0,0,0,.3-.71.91.91,0,0,0-.82-1H23s-.06,0-.06.11Zm0,2c0,.44,0,.57.23.66a1.24,1.24,0,0,0,.48.08c.35,0,.81-.21.81-.95A1.52,1.52,0,0,0,23.84,89a.94.94,0,0,0-.57-.17H23s0,0,0,0Z" transform="translate(-2.5 -1.94)"></path><path class="cls-4" d="M26.4,88.28c0-1,0-1.21,0-1.42s-.08-.31-.22-.35a.67.67,0,0,0-.24,0c-.07,0-.11,0-.11-.07s.06-.06.16-.06l.89,0,.84,0c.09,0,.14,0,.14.06s0,.07-.11.07l-.19,0c-.18,0-.23.12-.25.36s0,.4,0,1.42v1.18c0,.65,0,1.18,0,1.47s.06.28.26.31a1.88,1.88,0,0,0,.34,0c.07,0,.1,0,.1.07s-.05.08-.13.08c-.43,0-.88,0-1.06,0l-.86,0c-.09,0-.13,0-.13-.08s0-.07.1-.07a.82.82,0,0,0,.24,0c.13,0,.17-.13.19-.32s0-.81,0-1.46Z" transform="translate(-2.5 -1.94)"></path><path class="cls-4" d="M30.15,89.46c0,.86,0,1.28.14,1.41s.37.14.88.14c.35,0,.61,0,.77-.19a.76.76,0,0,0,.17-.4c0-.06,0-.1.07-.1s.06.07.06.15a5.53,5.53,0,0,1-.09.77c0,.15-.08.18-.42.18l-1.19,0-.88,0h-.37l-.46,0c-.08,0-.13,0-.13-.08s0-.07.11-.07a.75.75,0,0,0,.23,0c.14,0,.17-.16.2-.35s0-.82,0-1.43V88.28c0-1,0-1.21,0-1.42s-.08-.3-.29-.36a.62.62,0,0,0-.21,0c-.08,0-.12,0-.12-.07s.05-.06.15-.06l.9,0,1,0c.09,0,.14,0,.14.06s0,.07-.12.07a1.15,1.15,0,0,0-.26,0c-.18,0-.23.12-.24.36s0,.4,0,1.42Z" transform="translate(-2.5 -1.94)"></path><path class="cls-4" d="M33.22,88.28c0-1,0-1.21,0-1.42s-.08-.31-.22-.35a.67.67,0,0,0-.24,0c-.07,0-.11,0-.11-.07s0-.06.16-.06l.88,0,.85,0c.09,0,.14,0,.14.06s0,.07-.11.07l-.19,0c-.18,0-.23.12-.25.36s0,.4,0,1.42v1.18c0,.65,0,1.18,0,1.47s.06.28.26.31a1.88,1.88,0,0,0,.34,0c.07,0,.1,0,.1.07s-.05.08-.13.08c-.43,0-.88,0-1.06,0l-.87,0c-.08,0-.12,0-.12-.08s0-.07.1-.07a.75.75,0,0,0,.23,0c.14,0,.18-.13.2-.32s0-.81,0-1.46Z" transform="translate(-2.5 -1.94)"></path><path class="cls-4" d="M36.5,90.49c0,.52.1.68.22.73a1.08,1.08,0,0,0,.35,0c.07,0,.11,0,.11.07s-.06.08-.15.08c-.43,0-.73,0-.85,0s-.38,0-.72,0c-.09,0-.15,0-.15-.08s0-.07.11-.07a1,1,0,0,0,.3,0c.17,0,.19-.23.2-.81l.06-4c0-.13.05-.23.11-.23s.18.1.29.22,1.07,1.15,2,2.14c.45.46,1.33,1.41,1.43,1.5h0l-.07-3c0-.41-.07-.53-.23-.6a1,1,0,0,0-.34,0c-.08,0-.11,0-.11-.07s.07-.06.17-.06l.84,0,.64,0c.09,0,.15,0,.15.06s0,.07-.11.07a.49.49,0,0,0-.2,0c-.18,0-.23.17-.24.55l-.08,4.22c0,.15,0,.21-.1.21a.4.4,0,0,1-.27-.14c-.41-.4-1.24-1.23-1.93-1.93s-1.42-1.53-1.54-1.65h0Z" transform="translate(-2.5 -1.94)"></path><path class="cls-4" d="M46.16,91c0,.18,0,.19-.08.23a3.8,3.8,0,0,1-1.62.3c-1.62,0-3.05-.77-3.05-2.62a2.5,2.5,0,0,1,1.16-2.19,3.12,3.12,0,0,1,1.77-.43,7.56,7.56,0,0,1,1.18.11c.13,0,.36.06.52.07s.09,0,.09.08a10.47,10.47,0,0,0,0,1.1c0,.1,0,.15-.09.15s-.06,0-.07-.09a.91.91,0,0,0-.23-.55,2,2,0,0,0-1.43-.51A1.83,1.83,0,0,0,43,87a2,2,0,0,0-.6,1.63,2.27,2.27,0,0,0,2.29,2.49,1.06,1.06,0,0,0,.47-.07.24.24,0,0,0,.13-.24V90.2c0-.33,0-.58,0-.79s-.08-.3-.29-.36a.9.9,0,0,0-.25,0c-.06,0-.11,0-.11-.07s.06-.07.14-.07l1,0,.77,0c.09,0,.14,0,.14.07a.09.09,0,0,1-.09.07.65.65,0,0,0-.18,0c-.18,0-.24.13-.25.36s0,.47,0,.81Z" transform="translate(-2.5 -1.94)"></path><path class="cls-4" d="M47.53,88.28c0-1,0-1.21,0-1.42s-.08-.3-.29-.36a.88.88,0,0,0-.26,0c-.07,0-.11,0-.11-.07s.05-.06.15-.06l1,0,.84,0q.15,0,.15.06s0,.07-.11.07a.68.68,0,0,0-.19,0c-.18,0-.23.12-.24.36s0,.4,0,1.42v.94c0,1,.18,1.35.5,1.62a1.28,1.28,0,0,0,.84.27,1.21,1.21,0,0,0,.88-.36A2.2,2.2,0,0,0,51,89.12v-.84c0-1,0-1.21,0-1.42s-.07-.3-.28-.36a.83.83,0,0,0-.24,0c-.07,0-.11,0-.11-.07s0-.06.13-.06l.79,0,.77,0c.09,0,.14,0,.14.06s0,.07-.11.07a.69.69,0,0,0-.2,0c-.18,0-.22.12-.24.36s0,.4,0,1.42V89A2.57,2.57,0,0,1,51,91a2,2,0,0,1-1.4.48,1.88,1.88,0,0,1-2.11-2.23Z" transform="translate(-2.5 -1.94)"></path><path class="cls-4" d="M53.52,89.72s-.05,0-.06,0l-.35.89a1.29,1.29,0,0,0-.1.41c0,.12.06.19.26.19h.1c.08,0,.1,0,.1.07s0,.08-.11.08l-.73,0c-.07,0-.42,0-.77,0-.08,0-.12,0-.12-.08s0-.07.08-.07H52c.3-.05.41-.26.55-.6l1.72-4.21c.08-.19.13-.27.2-.27s.13.07.19.22c.16.37,1.27,3.11,1.69,4.12.25.61.44.7.56.72a1.14,1.14,0,0,0,.25,0c.06,0,.09,0,.09.07s0,.08-.29.08-.71,0-1.27,0c-.12,0-.19,0-.19-.06s0-.06.08-.07.09-.07.06-.15l-.51-1.34s0,0-.07,0Zm1.41-.37s0,0,0,0l-.62-1.7s0-.06,0-.06,0,0,0,.06l-.64,1.69s0,0,0,0Z" transform="translate(-2.5 -1.94)"></path><path class="cls-4" d="M58.67,89.46c0,.86,0,1.28.15,1.41s.36.14.87.14.61,0,.78-.19a.76.76,0,0,0,.16-.4c0-.06,0-.1.08-.1s.06.07.06.15a5.81,5.81,0,0,1-.1.77c-.05.15-.08.18-.42.18l-1.19,0-.88,0h-.37l-.46,0c-.08,0-.13,0-.13-.08s0-.07.11-.07a.75.75,0,0,0,.23,0c.14,0,.17-.16.2-.35s0-.82,0-1.43V88.28c0-1,0-1.21,0-1.42s-.08-.3-.29-.36a.62.62,0,0,0-.21,0c-.08,0-.12,0-.12-.07s.05-.06.15-.06l.91,0,1,0c.1,0,.14,0,.14.06s0,.07-.12.07a1.07,1.07,0,0,0-.25,0c-.18,0-.24.12-.25.36s0,.4,0,1.42Z" transform="translate(-2.5 -1.94)"></path><path class="cls-4" d="M63.81,88.18c0-1,0-1.22,0-1.43a.33.33,0,0,0-.29-.37.94.94,0,0,0-.26,0c-.07,0-.12,0-.12-.08s.06-.06.16-.06l1,0c.21,0,1.69,0,1.82,0l.28,0,.1,0s0,0,0,.06a3.47,3.47,0,0,0-.06.44c0,.07,0,.36,0,.44s0,.11-.08.11,0,0,0-.08a.65.65,0,0,0,0-.25c0-.12-.1-.22-.44-.25l-1,0s0,0,0,.06v1.67s0,.08,0,.08,1,0,1.16,0,.26,0,.32-.1.08-.09.11-.09,0,0,0,.07,0,.15,0,.49c0,.14,0,.41,0,.46s0,.15-.07.15a.05.05,0,0,1-.06-.06c0-.07,0-.16,0-.24s-.12-.24-.38-.27l-1,0s0,0,0,.07v.54c0,.24,0,.81,0,1,0,.46.22.56.9.56a1.69,1.69,0,0,0,.63-.09c.17-.08.24-.22.29-.5,0-.07,0-.1.08-.1s.06.09.06.16a6.15,6.15,0,0,1-.09.75c0,.17-.11.17-.36.17l-1.23,0-.77,0h-.84c-.08,0-.13,0-.13-.07s0-.07.11-.07l.23,0c.14,0,.17-.16.2-.36s0-.82,0-1.44Z" transform="translate(-2.5 -1.94)"></path><path class="cls-4" d="M67.83,88.18c0-1,0-1.22,0-1.43s-.07-.31-.29-.37a.94.94,0,0,0-.26,0c-.07,0-.12,0-.12-.07s.06-.07.16-.07l1,0,1.08,0A3.51,3.51,0,0,1,72,87a2.41,2.41,0,0,1,.63,1.72,2.7,2.7,0,0,1-.73,1.89,3,3,0,0,1-2.23.79c-.24,0-.53,0-.8,0s-.5,0-.67,0h-.84c-.08,0-.13,0-.13-.07s0-.07.11-.07l.23,0c.14,0,.18-.16.2-.36s0-.82,0-1.44Zm.89.75c0,.71,0,1.23,0,1.36a1.43,1.43,0,0,0,.07.48c.09.13.35.27.88.27a2,2,0,0,0,1.45-.46,2.13,2.13,0,0,0,.57-1.68,2.26,2.26,0,0,0-.62-1.68,2.59,2.59,0,0,0-1.87-.65,1.47,1.47,0,0,0-.41.05c-.06,0-.08,0-.08.13,0,.23,0,.79,0,1.32Z" transform="translate(-2.5 -1.94)"></path><path class="cls-4" d="M73.65,88.18c0-1,0-1.22,0-1.43s-.08-.31-.29-.37a1,1,0,0,0-.26,0c-.07,0-.11,0-.11-.08s0-.06.14-.06l1,0,.86,0c.1,0,.14,0,.14.06s0,.08-.1.08a.68.68,0,0,0-.2,0c-.17,0-.23.13-.24.37s0,.4,0,1.43v.94c0,1,.18,1.37.51,1.64a1.21,1.21,0,0,0,.84.27,1.18,1.18,0,0,0,.89-.36A2.23,2.23,0,0,0,77.19,89v-.85c0-1,0-1.22,0-1.43s-.06-.31-.28-.37a.86.86,0,0,0-.24,0c-.07,0-.11,0-.11-.08s0-.06.14-.06l.79,0,.78,0c.09,0,.14,0,.14.06s0,.08-.12.08a.65.65,0,0,0-.19,0c-.19,0-.23.13-.25.37s0,.4,0,1.43v.72a2.59,2.59,0,0,1-.64,2,2,2,0,0,1-1.41.48A2.2,2.2,0,0,1,74.25,91a2.23,2.23,0,0,1-.6-1.79Z" transform="translate(-2.5 -1.94)"></path><path class="cls-4" d="M79.6,90.69a2.7,2.7,0,0,1,0-3.85,3,3,0,0,1,2.12-.71,6.67,6.67,0,0,1,1,.07c.24,0,.46.09.66.11s.1,0,.1.08,0,.13,0,.37,0,.6,0,.73,0,.17-.09.17-.07,0-.07-.14a1,1,0,0,0-.26-.63,1.83,1.83,0,0,0-1.29-.4,1.72,1.72,0,0,0-1.25.38,2.25,2.25,0,0,0-.62,1.76A2.2,2.2,0,0,0,81.85,91c.59,0,.91,0,1.18-.36a1.21,1.21,0,0,0,.23-.45c0-.1,0-.14.08-.14s.07.07.07.12a5.9,5.9,0,0,1-.14.9.24.24,0,0,1-.17.2,3.84,3.84,0,0,1-1.21.15,3.34,3.34,0,0,1-2.29-.73" transform="translate(-2.5 -1.94)"></path><path class="cls-4" d="M84.94,89.63s0,0-.06.05l-.36.91a1.19,1.19,0,0,0-.1.41c0,.12.06.19.27.19h.1c.08,0,.09,0,.09.07s0,.07-.1.07l-.74,0-.78,0c-.08,0-.12,0-.12-.07s0-.07.08-.07h.19c.31,0,.42-.25.56-.59l1.74-4.26c.07-.19.13-.27.2-.27s.12.07.19.22c.16.37,1.28,3.14,1.7,4.16.26.62.45.7.57.73l.25,0c.06,0,.09,0,.09.07s0,.07-.29.07H87.14c-.12,0-.2,0-.2-.06s0-.06.09-.07a.11.11,0,0,0,.06-.15l-.52-1.36s0-.05-.07-.05Zm1.42-.37s0,0,0,0l-.63-1.72s0-.06,0-.06,0,0,0,.06l-.64,1.71s0,.05,0,.05Z" transform="translate(-2.5 -1.94)"></path><path class="cls-4" d="M89.64,86.63l-1,0c-.39,0-.55,0-.65.21a1.13,1.13,0,0,0-.11.23c0,.05,0,.08-.08.08s-.06,0-.06-.11a8.07,8.07,0,0,1,.15-.82c0-.08,0-.12.07-.12s.12.05.29.08.45,0,.67,0h2.7a4,4,0,0,0,.46,0l.18,0s0,0,0,.15,0,.64,0,.82,0,.11-.06.11-.07,0-.08-.14V87c0-.17-.19-.38-.79-.39l-.84,0v2.74c0,.62,0,1.15,0,1.45s.06.32.26.35l.34,0c.08,0,.11,0,.11.07s-.06.07-.13.07l-1.08,0-.87,0c-.08,0-.13,0-.13-.07s0-.07.11-.07l.23,0c.14,0,.18-.16.2-.36s0-.82,0-1.44Z" transform="translate(-2.5 -1.94)"></path><path class="cls-4" d="M93.36,88.18c0-1,0-1.22,0-1.43s-.08-.31-.23-.36a.63.63,0,0,0-.24,0c-.07,0-.11,0-.11-.08s.06-.06.16-.06l.9,0,.85,0c.09,0,.14,0,.14.06s0,.08-.11.08a.65.65,0,0,0-.19,0c-.19,0-.24.13-.25.37s0,.4,0,1.43v1.19c0,.65,0,1.19,0,1.48s.07.29.27.32l.34,0c.07,0,.1,0,.1.07s0,.07-.13.07l-1.07,0-.87,0c-.09,0-.13,0-.13-.07s0-.07.11-.07l.23,0c.14,0,.17-.13.2-.33s0-.82,0-1.47Z" transform="translate(-2.5 -1.94)"></path><path class="cls-4" d="M95.45,88.77a2.6,2.6,0,0,1,2.79-2.64A2.45,2.45,0,0,1,101,88.66a2.66,2.66,0,0,1-2.8,2.76,2.57,2.57,0,0,1-2.72-2.65m4.53.13c0-1.49-.86-2.42-1.93-2.42-.75,0-1.62.42-1.62,2.09,0,1.39.76,2.49,2,2.49.47,0,1.53-.23,1.53-2.16" transform="translate(-2.5 -1.94)"></path><path class="cls-4" d="M102.44,90.41c0,.53.1.69.23.73a1,1,0,0,0,.34,0c.08,0,.12,0,.12.07s-.06.07-.15.07c-.44,0-.75,0-.87,0l-.72,0c-.09,0-.15,0-.15-.07s.05-.07.11-.07a1.53,1.53,0,0,0,.3,0c.17,0,.2-.23.21-.82l.06-4c0-.13,0-.23.11-.23s.17.11.29.23,1.08,1.16,2.05,2.15L105.81,90h0l-.07-3c0-.41-.07-.53-.23-.59a1,1,0,0,0-.34,0c-.09,0-.11,0-.11-.07s.07-.07.17-.07l.84,0,.66,0c.09,0,.15,0,.15.07s0,.07-.12.07a.75.75,0,0,0-.2,0c-.18.06-.24.18-.24.56l-.08,4.26c0,.15,0,.21-.11.21a.4.4,0,0,1-.27-.14c-.41-.4-1.25-1.24-1.94-2s-1.44-1.55-1.56-1.67h0Z" transform="translate(-2.5 -1.94)"></path><path class="cls-5" d="M64.93,8.52A2.38,2.38,0,0,0,65,10c.08.21.17.42.26.61.38.74.86,1.18,1.48,1.08a2.36,2.36,0,0,0,1.85-1.46.65.65,0,0,0,0-.75,1.13,1.13,0,0,1-.08-1.05c.15-.38.39-.55.69-.42s.38.39.4.81-.11.81-.38.92-.26.29-.28.58a4.55,4.55,0,0,0,.54,2.51c.26.5.77.69,1,.4a2.16,2.16,0,0,0-.2-1.52.87.87,0,0,0-.88-.51c.4-.73.91-.83,1.85-.36A2.57,2.57,0,0,1,73.85,9a15.75,15.75,0,0,0-3.35,8.32h-.33c-3.77,0-7.55,0-11.33,0-.25,0-.34-.1-.39-.51A15.73,15.73,0,0,0,56,10.13c-.25-.39-.52-.75-.79-1.14a2.51,2.51,0,0,1,2.6,1.86,1.21,1.21,0,0,1,1.27-.25,2.11,2.11,0,0,1,.57.52,1.09,1.09,0,0,0-1,.78,2.27,2.27,0,0,0-.11,1.3.6.6,0,0,0,.9-.31,4.24,4.24,0,0,0,.55-3,3,3,0,0,1-.47-.47,1.23,1.23,0,0,1,0-1.27.45.45,0,0,1,.78,0,1.17,1.17,0,0,1,.07,1.23.78.78,0,0,0,0,1,2.32,2.32,0,0,0,1.73,1.29c.86.11,1.64-.75,1.91-2.06a7.32,7.32,0,0,0,0-1.07l-.6.14c-.33.06-.58-.16-.74-.59a1.62,1.62,0,0,1,.07-1.26.6.6,0,0,1,.79-.39,1.23,1.23,0,0,1,.26.13,3.8,3.8,0,0,1-.11-2.44c.18-.74.43-1.44.65-2.18a6.27,6.27,0,0,1,.68,4.6c.4-.2.78-.3,1.05.32a1.52,1.52,0,0,1,0,1.22c-.3.81-.79.61-1.27.44" transform="translate(-2.5 -1.94)"></path><path class="cls-5" d="M64.41,18.15h5.75a.47.47,0,0,1,.35.13.74.74,0,0,1,.23.8,2.54,2.54,0,0,1-.5.7c0,.05-.13,0-.2,0H58.68c-.36,0-.57-.31-.57-.84s.21-.8.57-.8h5.73" transform="translate(-2.5 -1.94)"></path><path class="cls-3" d="M49.81,29.13a1.07,1.07,0,0,1-1.35.27,1,1,0,0,1-.22-1.52,4.11,4.11,0,0,0-.94-.15s-.89,2.05.33,3a2.67,2.67,0,0,0,2.54.06,3.35,3.35,0,0,0-.36-1.63" transform="translate(-2.5 -1.94)"></path><path class="cls-3" d="M51.26,29.07a1.19,1.19,0,0,0,1.26.28,1,1,0,0,0,.16-1.55,2,2,0,0,1,.56-.2s1.41,1.73.06,3a2.16,2.16,0,0,1-2.31.24,11.25,11.25,0,0,0,.27-1.75" transform="translate(-2.5 -1.94)"></path><path class="cls-3" d="M47.24,27.42s2.73-.19,3.08,2.15h.4a2.79,2.79,0,0,1,2.39-2.47l.86-.81-1.43.21a10.17,10.17,0,0,0-2.18-.3,6.44,6.44,0,0,0-2.29.55,2,2,0,0,0-1.57-.55Z" transform="translate(-2.5 -1.94)"></path><path class="cls-3" d="M47.28,31.23s-4,5.79-3.75,9a4.21,4.21,0,0,0,1.7-2s-1.3,2.45-1.82,3.24c.81.49,2.43-1.82,2.64-2.45.59.78-2.11,3-2.63,3.68,1.66-.26,3.3-2.28,3.34-2.41-.29,1.29-3.43,3.21-4.06,4,2.64-.22,5.45-4.14,6.75-7,1.39-3.08.57-5.69-1.38-4.9,2.17-1.88,5.9,4.36-3.15,11.4l-1.67,4.42.51.6,1.57-3.93-1,4.19h.54l1-3.37-.41,3.24,1.19-2.58-.21,2.51.28-.1.82-3.63,1,1.78v2.15a1.75,1.75,0,0,1-.7.37c-.41.09-.16.73,1,.23.45-.2,1.26.19,1.67.24a.66.66,0,0,0,.38-.71c-.13-.46-1,.33-1.57-1.09s.5-4.19.91-4.62,4.37-6.58,3.27-10.94c0,0-.31-1,0-1.32,0,0-1.94,1-3-.29,0,0-1.79,1.27-3.23.29" transform="translate(-2.5 -1.94)"></path><polygon class="cls-3" points="47.82 27.93 48.02 28.54 48.23 27.93 47.82 27.93"></polygon><path class="cls-3" d="M49.63,28.78a.68.68,0,0,1-.86.17c-.46-.29-.25-.72-.11-.95a1.51,1.51,0,0,1,.56.33c.14.13.41.45.41.45" transform="translate(-2.5 -1.94)"></path><path class="cls-3" d="M51.46,28.79a.69.69,0,0,0,.87.16c.45-.31.23-.73.09-1a1.63,1.63,0,0,0-.56.34c-.13.13-.4.46-.4.46" transform="translate(-2.5 -1.94)"></path><path class="cls-3" d="M79.22,29.37a1.07,1.07,0,0,0,1.35.27,1,1,0,0,0,.22-1.51,3.61,3.61,0,0,1,.94-.16s.89,2.05-.33,3a2.67,2.67,0,0,1-2.54.06,3.35,3.35,0,0,1,.36-1.63" transform="translate(-2.5 -1.94)"></path><path class="cls-3" d="M77.77,29.31a1.19,1.19,0,0,1-1.26.28A1,1,0,0,1,76.35,28a2,2,0,0,0-.56-.19s-1.41,1.72-.05,3a2.18,2.18,0,0,0,2.31.24,12.33,12.33,0,0,1-.28-1.76" transform="translate(-2.5 -1.94)"></path><path class="cls-3" d="M81.79,27.66s-2.72-.19-3.08,2.15h-.4a2.79,2.79,0,0,0-2.39-2.47l-.86-.81,1.43.21a10.93,10.93,0,0,1,2.18-.3A6.44,6.44,0,0,1,81,27a2,2,0,0,1,1.57-.55Z" transform="translate(-2.5 -1.94)"></path><path class="cls-3" d="M81.75,31.47s4,5.79,3.75,9a4.21,4.21,0,0,1-1.7-2s1.31,2.45,1.82,3.24c-.8.49-2.43-1.82-2.64-2.45-.59.78,2.11,3,2.63,3.68-1.66-.26-3.3-2.28-3.34-2.41.29,1.29,3.44,3.21,4.06,4-2.64-.23-5.45-4.15-6.75-7C78.2,34.45,79,31.84,81,32.63,78.79,30.75,75.06,37,84.11,44l1.67,4.42-.5.6L83.7,45.12l1,4.19h-.54l-1-3.37.41,3.24L82.32,46.6l.21,2.51L82.25,49l-.81-3.64-1,1.79v2.14a1.75,1.75,0,0,0,.7.37c.41.1.16.73-1,.23-.45-.2-1.26.19-1.67.24,0,0-.5-.24-.38-.7s1,.33,1.58-1.09-.51-4.2-.92-4.63-4.37-6.57-3.27-10.93c0,0,.32-1,0-1.33,0,0,1.94,1,3-.29,0,0,1.79,1.27,3.23.29" transform="translate(-2.5 -1.94)"></path><polygon class="cls-3" points="76.22 28.18 76.01 28.78 75.81 28.17 76.22 28.18"></polygon><path class="cls-3" d="M79.4,29a.68.68,0,0,0,.86.17c.46-.29.25-.72.11-1a1.51,1.51,0,0,0-.56.33c-.14.13-.41.45-.41.45" transform="translate(-2.5 -1.94)"></path><path class="cls-3" d="M77.57,29a.69.69,0,0,1-.87.16c-.45-.31-.23-.73-.09-1a1.63,1.63,0,0,1,.56.34c.13.13.4.46.4.46" transform="translate(-2.5 -1.94)"></path><path class="cls-4" d="M49.51,56.82l-.1,0-.1-.05-.1,0-.09,0L49,56.58l-.09,0-.08,0-.08,0-.08,0-.07,0-.07,0-.07,0-.06,0-.06,0-.06,0-.05,0-.06,0,0,0,0,0,0,0,0,0,0,0,0,0h0l0,0h0l-.07,0h0l-.07-.07a1.58,1.58,0,0,0-1-.55h-.17l-.06,0h-.06l0,0h0v0h0v0h0v.06h0a.2.2,0,0,0,0,.07h0s0,.05,0,.07h0a.14.14,0,0,0,0,.07v0l0,.08h0l0,.09a1.88,1.88,0,0,0,1.24.73l.17,0,.05,0,.1,0h.06l.09,0,.06,0,.07,0,.06,0,.07,0,.05,0,.07,0,0,0,.07,0h0l.09.05h0l.09.06,0,0,.06,0,0,0,0,0,0,0,0,0,0,0,0,0,0,0,0,0a0,0,0,0,0,0,0l0,0v0l0,.05c.07-.24.14-.49.2-.72l0,0" transform="translate(-2.5 -1.94)"></path><path class="cls-4" d="M37.74,49.38a2.72,2.72,0,0,0-.58-.06,5.19,5.19,0,0,0-2,.51,2.64,2.64,0,0,1,1,.28,4.81,4.81,0,0,1,1,.7h0a1.68,1.68,0,0,0,.18.21l.66.65h0c1.05,1.06,2.34,2.42,2.48,2.57s.84.71,1.88,1.48c3.32,2.44,5,3,5.82,3A1,1,0,0,0,49.22,58h0v0h0v0h0v0h0v0h0v0h0v0h0a0,0,0,0,0,0,0h0l0,0,0,0h0l0,0h0l0,0h0l0,0h0l0,0,0,0,0,0,0,0,0,0,0,0,0,0,0,0,0,0h0l0,0h0l0,0a.05.05,0,0,1,0,0l-.06,0h0l-.06,0h0l-.06,0h0l-.08,0,0,0-.09,0h0l-.14,0a2.15,2.15,0,0,1-1.43-.87,1.32,1.32,0,0,1-.18-.5l-.16.14.18-.53h0v0h0a.81.81,0,0,0,0-.15h0V55s0,0,0,0v0s0,0,0,0v-.06s0,0,0,0a.06.06,0,0,1,0,0s0,0,0,0a0,0,0,0,0,0,0l0-.06v0l0-.06v0c.05-.13.1-.28.16-.45v0l0-.08v0l0-.07v0l0-.07,0-.05,0-.07,0,0,0-.08a.17.17,0,0,1,0-.05s0,0,0-.07l0,0,0-.08s0,0,0-.05l0-.08s0,0,0,0l0-.08,0,0,0-.08a.17.17,0,0,0,0-.05l0-.08,0,0,0-.09v0l.09-.23a16.64,16.64,0,0,1-4.63-4h0l-.09-.11a13.47,13.47,0,0,1-2-3.33c-.17,1.3-.44,4,.18,5.06l.08.14-.22.14-.08,0a11.19,11.19,0,0,0-2.64-.88" transform="translate(-2.5 -1.94)"></path><path class="cls-4" d="M63.39,60.16l.53,0h0a8.69,8.69,0,0,0,1.25,0h0l.53,0a38.48,38.48,0,0,0,13.57-3.54h0c1.07-.52,1.69-.9,1.79-1l.17-.16A1.7,1.7,0,0,1,82.45,55h.22s0,0,0,0l0-.06s0,0,0,0l0-.1v0l0-.09s0,0,0,0l0-.12v0a.76.76,0,0,0,0-.11v0l0-.15h0s0-.1,0-.14a0,0,0,0,1,0,0l-.06-.16h0l-.06-.16v0c0-.12-.09-.23-.13-.35v0c0-.11-.09-.23-.14-.35v0a3.65,3.65,0,0,1-.14-.35l0,0-.07-.18c-.92-2.24-1.35-2.61-1.49-2.66h0a14.16,14.16,0,0,0-2.74,1c-.93.39-2,.83-3.08,1.23A33.41,33.41,0,0,1,64.73,54h-.29a33.34,33.34,0,0,1-9.59-2.07c-1.09-.4-2.15-.84-3.08-1.23a13.94,13.94,0,0,0-2.75-1H49c-.13,0-.56.42-1.48,2.66h0v0l-.06.15a.14.14,0,0,0,0,.06l-.06.15v0c0,.06,0,.11-.07.17s0,0,0,.05l-.06.15v0a1.22,1.22,0,0,0-.07.17l0,0a.88.88,0,0,1-.05.15v0l-.06.16v0a.78.78,0,0,0-.05.14v0l-.06.15s0,0,0,0a.76.76,0,0,0,0,.11l0,0,0,.13,0,.05,0,.09,0,0a.49.49,0,0,1,0,.11v.05l0,.07v0l0,.09,0,0s0,0,0,.05v0h.22a1.89,1.89,0,0,1,1.29.69c.06,0,.26.16.6.34s.7.38,1.19.62a38.84,38.84,0,0,0,13.59,3.54" transform="translate(-2.5 -1.94)"></path><path class="cls-4" d="M79.82,57.56a.1.1,0,0,1,0-.05v0l0,0,0,0,0,0,0,0,0,0,0,0,0,0,0,0,0,0,0,0,0,0,0,0,.08,0,0,0,.07,0,0,0,.06,0,0,0,.07,0,0,0,.07,0,0,0,.08,0,.06,0,.08,0,.06,0,.1,0,.06,0,.16,0A1.83,1.83,0,0,0,82.66,56l0-.09h0l0-.08v0a.14.14,0,0,0,0-.07h0a.64.64,0,0,0,0-.07h0s0,0,0-.07h0v-.05h0v0h0v0h0l0,0h-.06l-.06,0h-.16a1.55,1.55,0,0,0-1,.55l-.08.07h0l-.11.07h0l0,0h0l-.06,0h0l-.06,0h0s0,0-.06,0l0,0-.07,0-.05,0-.07,0-.06,0-.08.05-.06,0-.09.05-.07,0-.09,0-.08,0-.1.05-.08,0-.11.06-.08,0-.12.06h0c.07.23.14.48.21.72h0" transform="translate(-2.5 -1.94)"></path><path class="cls-4" d="M86.83,55.75c1-.77,1.8-1.41,1.88-1.48s1.42-1.51,2.47-2.57h0l.65-.65a1.2,1.2,0,0,0,.19-.21h0a5.28,5.28,0,0,1,1-.7,2.59,2.59,0,0,1,1-.28A5.2,5.2,0,0,0,92,49.32a2.62,2.62,0,0,0-.57.06,11.17,11.17,0,0,0-2.65.88l-.07,0-.23-.14.08-.14c.59-1,.39-3.6.19-5.07a13.28,13.28,0,0,1-2,3.34l-.08.11h0a16.81,16.81,0,0,1-4.63,4l.15.38h0a.69.69,0,0,1,0,.1v0a.36.36,0,0,1,0,.09s0,0,0,0l0,.09a.08.08,0,0,0,0,0l0,.08s0,0,0,.05a.11.11,0,0,1,0,.08.08.08,0,0,1,0,0l0,.07s0,0,0,.05l0,.08a.43.43,0,0,1,0,0l0,.07s0,0,0,.05a1648337093985.22,1648337093985.22,0,0,1,0,.12l0,.06a.14.14,0,0,0,0,.06.17.17,0,0,0,0,.05.14.14,0,0,0,0,.06s0,0,0,.05l0,.09h0l0,.1a0,0,0,0,0,0,0s0,.05,0,.07v0l0,.08h0l0,.08h0l0,.07h0c.09.27.15.44.16.48h0l.19.58-.18-.16a1.43,1.43,0,0,1-.17.49,2.15,2.15,0,0,1-1.43.87l-.14,0h0l-.09,0,0,0-.07,0h0l-.06,0h0l-.06,0h0l0,0,0,0,0,0,0,0-.05,0,0,0,0,0,0,0,0,0,0,0,0,0,0,0,0,0,0,0s0,0,0,0l0,0,0,0h0l0,0h0l0,0h0l0,0h0l0,0v0s0,0,0,0v0h0v0h0v0h0v0h0v0h0a1,1,0,0,0,1.06.67c.82,0,2.5-.52,5.82-3" transform="translate(-2.5 -1.94)"></path><path class="cls-3" d="M74.85,22H54.31A18.34,18.34,0,0,1,55,25.39c.27,3.74.1,8.74.1,12.82v4.38s6.85,7.2,9.45,9.5c2.61-2.3,9.46-9.5,9.46-9.5V38.21c0-4.08-.17-9.08.1-12.82A18.33,18.33,0,0,1,74.85,22m-3,18.74c-1.18,0-2.32-.05-2.83-.05s-1.56.05-2.27.05c-.25,0-.38-.05-.38-.19s.08-.15.29-.15a3.5,3.5,0,0,0,.66-.07c.36-.08.45-.5.52-1,.09-.8.09-2.31.09-4.06V33.52a.11.11,0,0,0-.11-.12H60.94c-.06,0-.11,0-.11.12v1.67c0,1.75,0,3.26.09,4.08,0,.53.16.95.7,1,.26,0,.66.07.93.07s.29.06.29.15-.15.19-.36.19c-1.18,0-2.32-.05-2.83-.05s-1.56.05-2.29.05c-.23,0-.36-.05-.36-.19s.07-.15.29-.15a3.38,3.38,0,0,0,.65-.07c.37-.08.46-.5.53-1,.09-.8.09-2.31.09-4.06V31.84c0-2.89,0-3.43,0-4s-.18-.95-.78-1.08a3.31,3.31,0,0,0-.7-.06c-.2,0-.31,0-.31-.17s.12-.17.38-.17c1,0,2.12.06,2.61.06s1.58-.06,2.29-.06c.25,0,.38,0,.38.17s-.11.17-.33.17a3,3,0,0,0-.53.06c-.49.09-.63.42-.67,1.08s0,1.15,0,4v.4c0,.1.05.13.11.13h6.92c.06,0,.11,0,.11-.13v-.4c0-2.89,0-3.43,0-4s-.18-.95-.78-1.08a3.48,3.48,0,0,0-.71-.06c-.2,0-.31,0-.31-.17s.13-.17.38-.17c1,0,2.12.06,2.61.06s1.58-.06,2.29-.06c.25,0,.38,0,.38.17s-.11.17-.33.17a3,3,0,0,0-.52.06c-.49.09-.64.42-.67,1.08s0,1.15,0,4v3.35c0,1.75,0,3.26.09,4.08.06.53.16.95.71,1a9,9,0,0,0,.92.07c.2,0,.29.06.29.15s-.14.19-.36.19" transform="translate(-2.5 -1.94)"></path></g></g></g></g></svg>