<svg xmlns="http://www.w3.org/2000/svg" xmlns:xlink="http://www.w3.org/1999/xlink" viewBox="0 0 482.55 413.04"><defs><style>.cls-1{fill:none;}.cls-2{fill:#fff;opacity:0.9;}.cls-3{clip-path:url(#clip-path);}.cls-4,.cls-6{fill:#001881;}.cls-5{fill:#e0040b;}.cls-6{fill-rule:evenodd;}</style><clipPath id="clip-path"><rect class="cls-1" x="58.85" y="63.15" width="363.47" height="264.36"></rect></clipPath></defs><g id="Camada_2" data-name="Camada 2"><g id="Camada_1-2" data-name="Camada 1"><rect class="cls-2" width="482.55" height="413.04" rx="52.85"></rect><g class="cls-3"><g class="cls-3"><path class="cls-4" d="M66.82,290.53c-.83-.38-1-.65-1-1.85,0-3,.21-6.27.26-7.15s.21-1.41.62-1.41.52.49.52.92a12,12,0,0,0,.47,2.78,7.17,7.17,0,0,0,7.42,5.51c4.68,0,7-3.33,7-6.22,0-2.67-.78-5.17-5.09-8.72l-2.39-2c-5.71-4.69-7.68-8.51-7.68-12.92,0-6,4.78-10.31,12-10.31a24,24,0,0,1,6.91.93c.47.11.73.27.73.65,0,.71-.21,2.29-.21,6.54,0,1.2-.15,1.64-.57,1.64s-.52-.33-.52-1a6.82,6.82,0,0,0-1.35-3.6,6.46,6.46,0,0,0-5.66-2.67c-3.84,0-6.18,2.34-6.18,5.61,0,2.51,1.19,4.42,5.5,7.86L79,266.32c6.28,5,8.52,8.73,8.52,13.9a11.17,11.17,0,0,1-4.88,9.49A14.44,14.44,0,0,1,74.41,292a17.22,17.22,0,0,1-7.59-1.42"></path><path class="cls-4" d="M98.24,279.52c-.26,0-.31.05-.41.32l-2.44,6.22a8.69,8.69,0,0,0-.68,2.83c0,.82.42,1.31,1.82,1.31h.68c.57,0,.67.22.67.49s-.26.49-.73.49c-1.5,0-3.63-.16-5.09-.16-.46,0-2.91.16-5.29.16-.58,0-.83-.1-.83-.49a.46.46,0,0,1,.51-.49c.42,0,.94-.05,1.35-.05,2.08-.33,2.86-1.74,3.8-4.09l11.94-29.17c.52-1.31.88-1.86,1.35-1.86.68,0,.88.44,1.35,1.48,1.09,2.56,8.73,21.53,11.64,28.57,1.76,4.2,3.06,4.8,3.89,5a10.45,10.45,0,0,0,1.71.16c.42,0,.63.17.63.49s-.26.49-2,.49-4.93,0-8.77-.1c-.83-.06-1.35-.06-1.35-.39s.1-.43.57-.49a.73.73,0,0,0,.41-1l-3.53-9.33a.43.43,0,0,0-.47-.32ZM108,277c.21,0,.26-.11.21-.27l-4.31-11.78c-.06-.16-.11-.43-.21-.43s-.21.27-.26.43L99,276.63c-.1.21,0,.32.16.32Z"></path><path class="cls-4" d="M126.49,269.54c0-7,0-8.34,0-9.82s-.57-2.12-1.56-2.45a5.69,5.69,0,0,0-1.66-.22c-.46,0-.73-.11-.73-.54,0-.28.37-.39,1.09-.39,1.72,0,4.84.11,6.13.11s4.11-.11,5.87-.11c.57,0,.94.11.94.39,0,.43-.26.54-.73.54a6,6,0,0,0-1.35.17c-1.25.21-1.61.87-1.71,2.5-.11,1.48-.11,2.78-.11,9.82v8.18c0,4.47,0,8.17.21,10.14.16,1.25.47,2,1.82,2.18a16.13,16.13,0,0,0,2.34.16c.51,0,.72.28.72.49s-.36.49-.88.49c-3,0-6.13-.16-7.37-.16-1,0-4.16.16-6,.16-.57,0-.88-.16-.88-.49s.16-.49.73-.49a6.45,6.45,0,0,0,1.61-.16c.93-.22,1.19-.87,1.35-2.24.2-1.91.2-5.61.2-10.08Z"></path><path class="cls-4" d="M147.89,284.86c.1,3.6.68,4.69,1.56,5a7.47,7.47,0,0,0,2.39.32c.52,0,.78.22.78.49s-.42.49-1,.49c-3,0-5.09-.16-5.92-.16-.42,0-2.6.16-4.94.16-.62,0-1-.05-1-.49,0-.27.32-.49.73-.49a9.12,9.12,0,0,0,2.08-.21c1.19-.33,1.35-1.58,1.4-5.62l.42-27.48c0-.93.31-1.58.78-1.58s1.19.71,2,1.52c.57.6,7.43,8,14.07,14.78,3.12,3.22,9.2,9.76,9.87,10.41h.21l-.47-20.61c-.05-2.83-.46-3.65-1.56-4.09a7.33,7.33,0,0,0-2.38-.27c-.58,0-.73-.22-.73-.49s.47-.44,1.14-.44c2.39,0,4.83.11,5.82.11.52,0,2.23-.11,4.46-.11.63,0,1,.06,1,.44s-.26.49-.77.49a4.55,4.55,0,0,0-1.41.16c-1.24.39-1.61,1.2-1.66,3.82l-.52,29.23c0,1-.36,1.47-.73,1.47a2.68,2.68,0,0,1-1.87-1c-2.85-2.78-8.57-8.51-13.34-13.36-5-5-9.82-10.63-10.7-11.45h-.16Z"></path><path class="cls-4" d="M192.19,259l-6.81.16c-2.64.06-3.73.39-4.41,1.42a5.81,5.81,0,0,0-.78,1.58c-.1.38-.21.6-.52.6s-.41-.27-.41-.76c0-.76.88-5.24,1-5.62.11-.6.26-.87.52-.87s.83.38,2,.55a41.74,41.74,0,0,0,4.57.21h18.54A20.83,20.83,0,0,0,209,256c.72-.11,1.09-.22,1.24-.22.31,0,.36.27.36,1,0,1-.1,4.42-.1,5.62-.05.49-.15.76-.41.76s-.47-.22-.52-.93l-.06-.49c-.1-1.2-1.29-2.62-5.4-2.67l-5.76-.11v18.76c0,4.25.05,7.9.26,9.92.15,1.31.41,2.18,1.76,2.4a16.22,16.22,0,0,0,2.34.16c.52,0,.73.28.73.49s-.37.49-.88.49c-3,0-6.08-.16-7.38-.16-1,0-4.15.16-6,.16-.57,0-.89-.16-.89-.49s.16-.49.73-.49a6.09,6.09,0,0,0,1.61-.16c.94-.22,1.2-1.09,1.35-2.45.21-2,.21-5.62.21-9.87Z"></path><path class="cls-4" d="M249.57,267.3c.15,0,.31-.11.31-.38v-1.14c0-8.29,0-9.82-.1-11.56s-.52-2.73-2.24-3.11a10,10,0,0,0-2-.17c-.57,0-.88-.1-.88-.49s.36-.49,1.09-.49c2.8,0,6.07.17,7.47.17s4.52-.17,6.55-.17c.72,0,1.09.11,1.09.49s-.31.49-.94.49a8.78,8.78,0,0,0-1.5.17c-1.4.27-1.82,1.2-1.92,3.11-.11,1.74-.11,3.27-.11,11.56v9.59c0,5,0,9.33.26,11.67.16,1.53.47,2.73,2,2.95a22.57,22.57,0,0,0,2.65.21c.57,0,.83.17.83.44s-.42.54-1,.54c-3.38,0-6.65-.16-8.11-.16-1.19,0-4.46.16-6.49.16-.72,0-1.09-.16-1.09-.54s.21-.44.83-.44a8.63,8.63,0,0,0,1.87-.21c1-.22,1.3-1.42,1.51-3,.26-2.29.26-6.6.26-11.62v-4.8a.3.3,0,0,0-.31-.32H229.73c-.16,0-.31.05-.31.32v4.8c0,5,0,9.33.26,11.67.15,1.53.46,2.73,2,2.95a22.74,22.74,0,0,0,2.65.21c.57,0,.83.17.83.44s-.41.54-1,.54c-3.37,0-6.65-.16-8.1-.16-1.19,0-4.47.16-6.54.16-.68,0-1-.16-1-.54s.2-.44.83-.44a8.71,8.71,0,0,0,1.87-.21c1-.22,1.3-1.42,1.5-3,.26-2.29.26-6.6.26-11.62v-9.59c0-8.29,0-9.82-.1-11.56s-.52-2.73-2.23-3.11a10.11,10.11,0,0,0-2-.17c-.57,0-.88-.1-.88-.49s.36-.49,1.09-.49c2.8,0,6.08.17,7.48.17,1.24,0,4.52-.17,6.54-.17.73,0,1.09.11,1.09.49s-.31.49-.93.49a8.88,8.88,0,0,0-1.51.17c-1.4.27-1.82,1.2-1.92,3.11-.1,1.74-.1,3.27-.1,11.56v1.14c0,.27.15.38.31.38Z"></path><path class="cls-4" d="M268.73,269.54c0-7,0-8.34-.05-9.82s-.52-2.07-2-2.5a7.86,7.86,0,0,0-1.81-.17c-.47,0-.78-.16-.78-.49s.36-.44,1-.44c2.38,0,5.29.11,6.59.11,1.46,0,11.58.06,12.47,0a16.11,16.11,0,0,0,1.92-.27,6.21,6.21,0,0,1,.72-.22c.27,0,.32.22.32.44a22,22,0,0,0-.37,3c-.05.49-.15,2.51-.26,3.05-.05.22-.15.76-.51.76s-.37-.21-.37-.59a4.58,4.58,0,0,0-.31-1.7c-.36-.81-.73-1.47-3-1.69-.78-.1-6.23-.21-7.17-.21-.21,0-.31.16-.31.43v11.45c0,.28.05.49.31.49,1,0,7,0,8-.1s1.76-.22,2.18-.72c.36-.32.52-.59.73-.59s.36.21.36.49-.1,1-.36,3.38c-.11.93-.21,2.78-.21,3.1s-.05,1-.47,1-.41-.16-.41-.38c-.06-.49-.06-1.09-.16-1.69-.26-.93-.83-1.64-2.55-1.8-.83-.11-6-.22-7.16-.22-.21,0-.26.22-.26.49v3.71c0,1.58-.05,5.51,0,6.87.1,3.16,1.5,3.87,6.18,3.87a11.72,11.72,0,0,0,4.31-.6c1.14-.54,1.66-1.52,2-3.43.11-.49.21-.71.52-.71s.42.6.42,1.09a32.72,32.72,0,0,1-.63,5.12c-.31,1.2-.72,1.2-2.44,1.2-3.42,0-6.18-.05-8.41-.16s-3.95-.11-5.3-.11c-.52,0-1.5.06-2.59.06s-2.24.1-3.17.1c-.57,0-.89-.16-.89-.49s.16-.49.73-.49a6.34,6.34,0,0,0,1.61-.16c.94-.22,1.2-1.09,1.35-2.45.21-2,.21-5.62.21-9.87Z"></path><path class="cls-4" d="M301.14,277.72c0,5.94,0,8.88,1,9.76.78.7,2.55,1,6.08,1,2.44,0,4.21,0,5.35-1.31a5.7,5.7,0,0,0,1.14-2.78c.05-.44.16-.71.52-.71s.42.49.42,1A37.6,37.6,0,0,1,315,290c-.31,1-.52,1.25-2.91,1.25-3.27,0-5.92-.05-8.2-.16s-4.21-.11-6.08-.11c-.52,0-1.51.06-2.6.06s-2.23.1-3.17.1c-.57,0-.88-.16-.88-.49s.16-.49.73-.49a6.45,6.45,0,0,0,1.61-.16c.93-.22,1.19-1.09,1.35-2.45.21-2,.21-5.62.21-9.87v-8.18c0-7,0-8.34-.05-9.82s-.52-2.07-2-2.51a6.2,6.2,0,0,0-1.5-.16c-.53,0-.78-.16-.78-.49s.31-.44,1-.44c2.13,0,5,.11,6.29.11,1.09,0,4.83-.11,6.59-.11.68,0,1,.11,1,.44s-.26.49-.83.49a10.59,10.59,0,0,0-1.77.16c-1.24.22-1.61.88-1.71,2.51-.1,1.48-.1,2.78-.1,9.82Z"></path><path class="cls-4" d="M321.08,269.54c0-7,0-8.34-.05-9.82s-.52-2.07-2-2.5a7.9,7.9,0,0,0-1.82-.17c-.46,0-.78-.16-.78-.49s.37-.44,1-.44c2.39,0,5.3.11,6.6.11,1.45,0,11.58.06,12.46,0a16.35,16.35,0,0,0,1.93-.27,6.21,6.21,0,0,1,.72-.22c.26,0,.32.22.32.44a20.18,20.18,0,0,0-.37,3c0,.49-.15,2.51-.26,3.05-.05.22-.15.76-.52.76s-.36-.21-.36-.59a4.58,4.58,0,0,0-.31-1.7c-.37-.81-.73-1.47-3-1.69-.78-.1-6.23-.21-7.16-.21-.21,0-.32.16-.32.43v11.45c0,.28.06.49.32.49,1,0,7,0,8-.1s1.76-.22,2.18-.72c.36-.32.52-.59.72-.59s.37.21.37.49-.11,1-.37,3.38c-.1.93-.2,2.78-.2,3.1s-.06,1-.47,1-.42-.16-.42-.38c-.05-.49-.05-1.09-.15-1.69-.26-.93-.83-1.64-2.55-1.8-.83-.11-6-.22-7.16-.22-.21,0-.27.22-.27.49v3.71c0,1.58-.05,5.51,0,6.87.11,3.16,1.51,3.87,6.19,3.87a11.72,11.72,0,0,0,4.31-.6c1.14-.54,1.66-1.52,2-3.43.1-.49.21-.71.52-.71s.42.6.42,1.09a32.72,32.72,0,0,1-.63,5.12c-.31,1.2-.73,1.2-2.44,1.2-3.43,0-6.18-.05-8.41-.16s-3.95-.11-5.3-.11c-.52,0-1.51.06-2.6.06s-2.23.1-3.17.1c-.57,0-.88-.16-.88-.49s.16-.49.73-.49a6.45,6.45,0,0,0,1.61-.16c.93-.22,1.19-1.09,1.35-2.45.21-2,.21-5.62.21-9.87Z"></path><path class="cls-4" d="M350.21,284.86c.11,3.6.68,4.69,1.56,5a7.47,7.47,0,0,0,2.39.32c.52,0,.78.22.78.49s-.42.49-1,.49c-3,0-5.09-.16-5.92-.16-.42,0-2.6.16-4.93.16-.63,0-1-.05-1-.49,0-.27.31-.49.72-.49a9.12,9.12,0,0,0,2.08-.21c1.19-.33,1.35-1.58,1.4-5.62l.42-27.48c0-.93.31-1.58.78-1.58s1.19.71,2,1.52c.57.6,7.43,8,14.07,14.78,3.12,3.22,9.2,9.76,9.87,10.41h.21l-.47-20.61c-.05-2.83-.46-3.65-1.55-4.09a7.42,7.42,0,0,0-2.39-.27c-.57,0-.73-.22-.73-.49s.47-.44,1.14-.44c2.39,0,4.83.11,5.82.11.52,0,2.23-.11,4.47-.11.62,0,1,.06,1,.44s-.25.49-.78.49a4.53,4.53,0,0,0-1.4.16c-1.24.39-1.61,1.2-1.66,3.82l-.52,29.23c0,1-.36,1.47-.72,1.47a2.66,2.66,0,0,1-1.87-1c-2.86-2.78-8.57-8.51-13.35-13.36-5-5-9.82-10.63-10.7-11.45h-.16Z"></path><path class="cls-4" d="M390.41,279.52c-.26,0-.31.05-.42.32l-2.44,6.22a8.62,8.62,0,0,0-.67,2.83c0,.82.41,1.31,1.81,1.31h.68c.57,0,.67.22.67.49s-.26.49-.72.49c-1.51,0-3.64-.16-5.09-.16-.47,0-2.91.16-5.3.16-.57,0-.83-.1-.83-.49a.46.46,0,0,1,.52-.49c.41,0,.93-.05,1.35-.05,2.08-.33,2.85-1.74,3.79-4.09l11.94-29.17c.52-1.31.89-1.86,1.35-1.86.68,0,.89.44,1.35,1.48,1.1,2.56,8.73,21.53,11.64,28.57,1.77,4.2,3.06,4.8,3.9,5a10.26,10.26,0,0,0,1.71.16c.41,0,.62.17.62.49s-.26.49-2,.49-4.94,0-8.78-.1c-.83-.06-1.35-.06-1.35-.39s.1-.43.57-.49a.74.74,0,0,0,.42-1l-3.53-9.33a.44.44,0,0,0-.47-.32Zm9.76-2.57c.21,0,.26-.11.21-.27l-4.31-11.78c-.05-.16-.11-.43-.21-.43s-.21.27-.26.43l-4.41,11.73c-.11.21,0,.32.15.32Z"></path><path class="cls-5" d="M120.67,310.24c0-2.85,0-3.38,0-4a.92.92,0,0,0-.8-1,3.49,3.49,0,0,0-.73-.06c-.19,0-.32-.07-.32-.2s.15-.18.42-.18c1,0,2.15.05,2.5.05.93,0,2.14-.05,2.77-.05,3.34,0,3.93,1.81,3.93,2.8a4.16,4.16,0,0,1-2.08,3.29c1.51.51,3.4,1.85,3.4,4.05,0,2-1.51,4.08-4.91,4.08-.21,0-.84,0-1.47-.06l-1.57-.05c-.21,0-.61,0-1.05,0s-.91,0-1.29,0-.35-.07-.35-.2.06-.2.29-.2a2.87,2.87,0,0,0,.65-.06c.38-.09.49-.44.55-1,.08-.8.08-2.28.08-4Zm2.4.3c0,.16.06.18.12.2a3.39,3.39,0,0,0,.86.07,2.33,2.33,0,0,0,1.45-.33,2.52,2.52,0,0,0,.84-2c0-1.26-.71-2.83-2.31-2.83a4,4,0,0,0-.8.05c-.12,0-.16.11-.16.31Zm0,5.52c0,1.23.06,1.61.65,1.85a3.21,3.21,0,0,0,1.32.22c1,0,2.27-.57,2.27-2.65a4.17,4.17,0,0,0-1.74-3.32,2.54,2.54,0,0,0-1.6-.49h-.8c-.06,0-.1,0-.1.13Z"></path><path class="cls-5" d="M132.75,310.24c0-2.85,0-3.38,0-4s-.23-.86-.63-1a2.13,2.13,0,0,0-.67-.09c-.19,0-.29-.05-.29-.22s.15-.16.44-.16c.69,0,2,.05,2.48.05s1.66-.05,2.37-.05c.23,0,.38.05.38.16s-.11.22-.29.22a2.72,2.72,0,0,0-.55.06c-.5.09-.65.36-.69,1s-.05,1.12-.05,4v3.3c0,1.81,0,3.31.09,4.11.06.5.19.79.73.88a7.46,7.46,0,0,0,1,.06c.21,0,.29.11.29.2s-.15.2-.36.2c-1.21,0-2.47-.07-3-.07s-1.68.07-2.41.07c-.23,0-.36-.07-.36-.2s.06-.2.3-.2a2.87,2.87,0,0,0,.65-.06c.37-.09.48-.36.54-.91.09-.77.09-2.27.09-4.08Z"></path><path class="cls-5" d="M143.24,313.54c0,2.41,0,3.6.4,3.95s1,.4,2.46.4c1,0,1.7,0,2.16-.53a2.29,2.29,0,0,0,.47-1.13c0-.17.06-.28.21-.28s.16.2.16.42a14.61,14.61,0,0,1-.27,2.16c-.12.42-.21.5-1.17.5-1.33,0-2.4,0-3.32-.06s-1.7-.05-2.46-.05c-.21,0-.61,0-1,0s-.9,0-1.28,0-.36-.07-.36-.2.06-.2.3-.2a2.87,2.87,0,0,0,.65-.06c.37-.09.48-.44.54-1,.09-.8.09-2.28.09-4v-3.3c0-2.85,0-3.38,0-4s-.21-.84-.8-1a2.62,2.62,0,0,0-.61-.06c-.21,0-.32-.07-.32-.2s.13-.18.4-.18c.86,0,2,.05,2.54.05s2-.05,2.67-.05c.27,0,.4.05.4.18s-.11.2-.34.2a4.25,4.25,0,0,0-.71.06c-.5.09-.65.36-.69,1s0,1.12,0,4Z"></path><path class="cls-5" d="M151.83,310.24c0-2.85,0-3.38,0-4s-.23-.86-.63-1a2.13,2.13,0,0,0-.67-.09c-.19,0-.29-.05-.29-.22s.14-.16.44-.16c.69,0,2,.05,2.47.05s1.66-.05,2.38-.05c.23,0,.38.05.38.16s-.11.22-.3.22a2.62,2.62,0,0,0-.54.06c-.51.09-.65.36-.7,1s0,1.12,0,4v3.3c0,1.81,0,3.31.09,4.11.06.5.18.79.73.88a7.19,7.19,0,0,0,.94.06c.21,0,.3.11.3.2s-.15.2-.36.2c-1.22,0-2.48-.07-3-.07s-1.68.07-2.42.07c-.23,0-.35-.07-.35-.2s.06-.2.29-.2a2.87,2.87,0,0,0,.65-.06c.38-.09.49-.36.55-.91.08-.77.08-2.27.08-4.08Z"></path><path class="cls-5" d="M161,316.43c0,1.46.27,1.9.63,2a3,3,0,0,0,1,.13c.21,0,.32.09.32.2s-.17.2-.42.2c-1.2,0-2.06-.07-2.4-.07-.16,0-1,.07-2,.07-.25,0-.42,0-.42-.2s.13-.2.29-.2a3.92,3.92,0,0,0,.84-.08c.49-.14.55-.65.57-2.28l.17-11.11c0-.37.12-.64.31-.64s.49.29.8.62,3,3.22,5.69,6c1.26,1.31,3.72,3.95,4,4.22h.09l-.19-8.34c0-1.14-.19-1.47-.63-1.65a3,3,0,0,0-1-.11c-.23,0-.29-.09-.29-.2s.19-.18.46-.18c1,0,2,.05,2.35.05.21,0,.9-.05,1.81-.05.25,0,.42,0,.42.18s-.11.2-.32.2a1.91,1.91,0,0,0-.56.06c-.51.16-.66.49-.68,1.55l-.21,11.81c0,.42-.14.6-.29.6a1.08,1.08,0,0,1-.76-.4c-1.15-1.12-3.46-3.44-5.39-5.4s-4-4.3-4.33-4.63h-.06Z"></path><path class="cls-5" d="M188.05,317.73c0,.51,0,.53-.23.67a10.78,10.78,0,0,1-4.51.83c-4.54,0-8.55-2.16-8.55-7.34a7,7,0,0,1,3.23-6.13,8.92,8.92,0,0,1,5-1.21,20,20,0,0,1,3.28.31c.37.06,1,.17,1.47.2.21,0,.25.08.25.22a25.63,25.63,0,0,0-.13,3.08c0,.29-.1.42-.25.42s-.17-.08-.19-.24a2.48,2.48,0,0,0-.63-1.54,5.53,5.53,0,0,0-4-1.44,5,5,0,0,0-3.57,1.11c-1,.88-1.7,2.27-1.7,4.56,0,4,2.48,7,6.43,7a2.87,2.87,0,0,0,1.3-.2.64.64,0,0,0,.36-.66v-1.72c0-.93,0-1.63,0-2.21a.89.89,0,0,0-.79-1,2.92,2.92,0,0,0-.72-.07c-.17,0-.29-.09-.29-.2s.15-.17.4-.17c1,0,2.29,0,2.83,0s1.56,0,2.17,0c.25,0,.37,0,.37.17a.22.22,0,0,1-.23.2,2.11,2.11,0,0,0-.5.07c-.5.09-.69.35-.71,1s0,1.32,0,2.25Z"></path><path class="cls-5" d="M191.89,310.24c0-2.85,0-3.38,0-4s-.21-.84-.79-1a3.59,3.59,0,0,0-.72-.06c-.21,0-.31-.07-.31-.2s.12-.18.4-.18c1,0,2.22.05,2.77.05s1.7-.05,2.37-.05c.27,0,.4.05.4.18s-.11.2-.29.2a2.72,2.72,0,0,0-.55.06c-.48.09-.63.36-.67,1s0,1.12,0,4v2.62c0,2.73.5,3.79,1.4,4.54a3.78,3.78,0,0,0,4.81-.24c1-1,1.07-2.65,1.07-4.56v-2.36c0-2.85,0-3.38,0-4s-.19-.84-.78-1a3.26,3.26,0,0,0-.67-.06c-.21,0-.31-.07-.31-.2s.12-.18.37-.18c1,0,2.19.05,2.21.05.21,0,1.45-.05,2.16-.05.25,0,.38.05.38.18s-.11.2-.32.2a2.7,2.7,0,0,0-.54.06c-.51.09-.63.36-.67,1s0,1.12,0,4v2c0,2.1-.21,4.3-1.77,5.65a5.6,5.6,0,0,1-3.9,1.34,6.13,6.13,0,0,1-4.22-1.28c-1-.86-1.69-2.25-1.69-5Z"></path><path class="cls-5" d="M208.65,314.27c-.1,0-.13,0-.17.13l-1,2.52a3.52,3.52,0,0,0-.28,1.14c0,.33.17.53.74.53h.27c.23,0,.27.09.27.2s-.1.2-.29.2c-.61,0-1.47-.07-2.06-.07-.19,0-1.18.07-2.14.07-.23,0-.34,0-.34-.2a.19.19,0,0,1,.21-.2l.55,0c.84-.13,1.15-.71,1.53-1.65l4.83-11.8c.21-.53.36-.75.55-.75s.35.18.54.6c.44,1,3.53,8.71,4.71,11.55.71,1.7,1.24,1.94,1.57,2a4.83,4.83,0,0,0,.7.06c.16,0,.25.07.25.2s-.11.2-.8.2-2,0-3.55,0c-.33,0-.54,0-.54-.16s0-.17.23-.2a.3.3,0,0,0,.16-.42l-1.42-3.77a.18.18,0,0,0-.19-.13Zm3.95-1c.08,0,.1-.05.08-.11l-1.74-4.77c0-.06,0-.17-.08-.17s-.09.11-.11.17L209,313.1c-.05.09,0,.14.06.14Z"></path><path class="cls-5" d="M223.07,313.54c0,2.41,0,3.6.4,3.95s1,.4,2.46.4c1,0,1.7,0,2.16-.53a2.29,2.29,0,0,0,.47-1.13c0-.17.06-.28.21-.28s.16.2.16.42a14.61,14.61,0,0,1-.27,2.16c-.12.42-.21.5-1.17.5-1.33,0-2.4,0-3.32-.06s-1.7-.05-2.46-.05c-.21,0-.61,0-1.05,0s-.9,0-1.28,0c-.23,0-.36-.07-.36-.2s.06-.2.3-.2a2.87,2.87,0,0,0,.65-.06c.38-.09.48-.44.54-1,.09-.8.09-2.28.09-4v-3.3c0-2.85,0-3.38,0-4s-.21-.84-.8-1a2.62,2.62,0,0,0-.61-.06c-.21,0-.32-.07-.32-.2s.13-.18.4-.18c.86,0,2,.05,2.54.05s2-.05,2.67-.05c.27,0,.4.05.4.18s-.11.2-.34.2a4.25,4.25,0,0,0-.71.06c-.5.09-.65.36-.69,1s-.05,1.12-.05,4Z"></path><path class="cls-5" d="M237.45,310c0-2.88,0-3.41,0-4s-.21-.85-.81-1a2.93,2.93,0,0,0-.74-.07c-.19,0-.32-.07-.32-.2s.15-.18.43-.18c1,0,2.16,0,2.69,0s4.73,0,5.09,0a5.5,5.5,0,0,0,.78-.11,2.43,2.43,0,0,1,.3-.09c.1,0,.12.09.12.18a9.61,9.61,0,0,0-.14,1.23c0,.2-.07,1-.11,1.24s-.06.32-.21.32-.15-.09-.15-.25a1.79,1.79,0,0,0-.13-.69c-.14-.33-.29-.6-1.23-.69-.31-.05-2.54-.09-2.92-.09-.09,0-.13.07-.13.18v4.67c0,.12,0,.2.13.2.42,0,2.84,0,3.26,0s.72-.09.89-.29.22-.24.3-.24a.17.17,0,0,1,.15.19c0,.12,0,.43-.15,1.39,0,.37-.08,1.13-.08,1.26s0,.43-.2.43a.14.14,0,0,1-.16-.16c0-.2,0-.44-.07-.69s-.34-.67-1-.73c-.34-.05-2.46-.09-2.92-.09-.09,0-.11.09-.11.2v1.51c0,.65,0,2.25,0,2.81,0,1.29.62,1.58,2.52,1.58a4.85,4.85,0,0,0,1.76-.25c.47-.22.68-.62.81-1.4,0-.2.08-.29.21-.29s.17.24.17.44a14.19,14.19,0,0,1-.25,2.1c-.13.49-.3.49-1,.49-1.4,0-2.52,0-3.43-.07s-1.62,0-2.17,0l-1.06,0c-.44,0-.91,0-1.29,0-.23,0-.36-.06-.36-.2s.06-.2.3-.2a2.87,2.87,0,0,0,.65-.06c.38-.09.49-.45.55-1,.09-.8.09-2.29.09-4Z"></path><path class="cls-5" d="M248.7,310c0-2.88,0-3.41,0-4s-.21-.85-.8-1a3,3,0,0,0-.75-.07c-.19,0-.31-.07-.31-.2s.15-.18.42-.18c1,0,2.16,0,2.69,0s1.91,0,3,0c2.34,0,5.48,0,7.51,2.16a6.82,6.82,0,0,1,1.76,4.81,7.51,7.51,0,0,1-2,5.27,8.48,8.48,0,0,1-6.26,2.23c-.68,0-1.48-.07-2.22-.11s-1.43-.11-1.89-.11l-1.06,0c-.45,0-.91,0-1.3,0-.23,0-.36-.06-.36-.2s.07-.2.3-.2a2.37,2.37,0,0,0,.66-.07c.38-.08.49-.44.55-1,.08-.8.08-2.29.08-4Zm2.51,2.09c0,2,0,3.45,0,3.83a3.55,3.55,0,0,0,.21,1.33c.23.36,1,.76,2.44.76a5.69,5.69,0,0,0,4.07-1.29c1.21-1.05,1.59-2.74,1.59-4.7a6.32,6.32,0,0,0-1.74-4.72,7.3,7.3,0,0,0-5.22-1.8,3.75,3.75,0,0,0-1.14.13c-.17.07-.23.16-.23.38,0,.65,0,2.21,0,3.7Z"></path><path class="cls-5" d="M265,310c0-2.88,0-3.41,0-4s-.21-.85-.8-1a3,3,0,0,0-.73-.07c-.21,0-.31-.07-.31-.2s.13-.18.4-.18c1,0,2.25,0,2.8,0s1.72,0,2.39,0c.28,0,.41,0,.41.18s-.11.2-.3.2a2.18,2.18,0,0,0-.55.07c-.49.08-.64.35-.68,1s0,1.13,0,4v2.64c0,2.76.51,3.83,1.42,4.59a3.48,3.48,0,0,0,2.35.76,3.44,3.44,0,0,0,2.5-1c1-1,1.09-2.67,1.09-4.6V310c0-2.88,0-3.41-.05-4s-.19-.85-.78-1a2.79,2.79,0,0,0-.68-.07c-.21,0-.32-.07-.32-.2s.13-.18.39-.18c.95,0,2.2,0,2.22,0,.21,0,1.46,0,2.18,0,.26,0,.39,0,.39.18s-.11.2-.32.2a2.13,2.13,0,0,0-.55.07c-.51.08-.64.35-.68,1s0,1.13,0,4v2c0,2.12-.21,4.34-1.78,5.7a5.61,5.61,0,0,1-3.94,1.36,6.25,6.25,0,0,1-4.26-1.29c-.95-.87-1.7-2.27-1.7-5Z"></path><path class="cls-5" d="M281.66,317a7.54,7.54,0,0,1-.14-10.77,8.13,8.13,0,0,1,5.91-2,18.51,18.51,0,0,1,2.72.2c.7.11,1.31.25,1.86.31.21,0,.28.12.28.23s-.05.38-.09,1,0,1.67-.06,2.05-.09.47-.26.47-.19-.16-.19-.4a2.71,2.71,0,0,0-.72-1.76,5.06,5.06,0,0,0-3.6-1.11,4.9,4.9,0,0,0-3.52,1.06,6.33,6.33,0,0,0-1.72,4.92c0,4.5,3.31,6.64,5.81,6.64,1.66,0,2.57-.14,3.31-1a3.08,3.08,0,0,0,.63-1.27c.05-.29.09-.38.24-.38s.21.18.21.33a17.75,17.75,0,0,1-.4,2.52.65.65,0,0,1-.49.55,10.19,10.19,0,0,1-3.37.43,9.3,9.3,0,0,1-6.41-2.05"></path><path class="cls-5" d="M296.59,314c-.11,0-.13,0-.17.13l-1,2.54a3.54,3.54,0,0,0-.27,1.16c0,.33.17.53.74.53h.27c.24,0,.28.09.28.2s-.11.2-.3.2c-.61,0-1.48-.06-2.08-.06-.19,0-1.18.06-2.16.06-.23,0-.34,0-.34-.2a.19.19,0,0,1,.21-.2l.56,0c.84-.13,1.16-.71,1.54-1.67l4.88-11.91c.21-.53.36-.76.55-.76s.36.18.55.61c.45,1,3.57,8.79,4.75,11.66.72,1.71,1.25,2,1.59,2a4.83,4.83,0,0,0,.7.06c.17,0,.26.07.26.2s-.11.2-.81.2-2,0-3.58,0c-.34,0-.55,0-.55-.16s0-.18.23-.2a.3.3,0,0,0,.17-.42l-1.44-3.81A.18.18,0,0,0,301,314Zm4-1c.09,0,.11,0,.09-.11l-1.76-4.81c0-.06,0-.17-.09-.17s-.08.11-.1.17l-1.8,4.79c-.05.09,0,.13.06.13Z"></path><path class="cls-5" d="M309.75,305.64l-2.78.06c-1.08,0-1.52.16-1.8.58a2.49,2.49,0,0,0-.32.65c0,.15-.08.24-.21.24s-.17-.11-.17-.31.36-2.14.4-2.29.11-.36.22-.36.34.16.8.23a18.55,18.55,0,0,0,1.87.08h7.57a8.8,8.8,0,0,0,1.27-.08c.3-.05.44-.09.51-.09s.15.11.15.4-.05,1.8-.05,2.29c0,.2-.06.31-.17.31s-.19-.09-.21-.38l0-.2c0-.49-.53-1.07-2.2-1.09l-2.36,0v7.65c0,1.74,0,3.23.11,4.06.06.53.17.89.72,1a6,6,0,0,0,.95.07c.22,0,.3.11.3.2s-.15.2-.36.2c-1.23,0-2.48-.06-3-.06s-1.7.06-2.44.06c-.23,0-.36-.06-.36-.2s.06-.2.3-.2a2.33,2.33,0,0,0,.66-.07c.38-.08.48-.44.55-1,.08-.8.08-2.29.08-4Z"></path><path class="cls-5" d="M320.16,310c0-2.88,0-3.41,0-4s-.24-.87-.64-1a2.15,2.15,0,0,0-.68-.09c-.19,0-.29-.05-.29-.22s.14-.16.44-.16c.7,0,2,0,2.5,0s1.68,0,2.4,0c.23,0,.38,0,.38.16s-.11.22-.3.22a2.18,2.18,0,0,0-.55.07c-.51.08-.66.35-.7,1s0,1.13,0,4v3.33c0,1.83,0,3.34.08,4.14.07.52.2.81.75.9a7.34,7.34,0,0,0,.95.06c.21,0,.3.11.3.2s-.15.2-.36.2c-1.23,0-2.5-.06-3-.06s-1.7.06-2.44.06c-.24,0-.36-.06-.36-.2s.06-.2.29-.2a2.91,2.91,0,0,0,.66-.06c.38-.09.49-.36.55-.92.09-.78.09-2.29.09-4.12Z"></path><path class="cls-5" d="M326,311.63c0-3.23,2.16-7.42,7.82-7.42,4.71,0,7.64,2.74,7.64,7.08a7.46,7.46,0,0,1-7.83,7.75,7.2,7.2,0,0,1-7.63-7.41m12.68.35c0-4.18-2.4-6.77-5.41-6.77-2.08,0-4.52,1.16-4.52,5.84,0,3.89,2.12,7,5.64,7,1.32,0,4.29-.64,4.29-6"></path><path class="cls-5" d="M345.57,316.21c.05,1.47.28,1.91.64,2.05a3.08,3.08,0,0,0,1,.13c.21,0,.31.09.31.2s-.17.2-.42.2c-1.21,0-2.08-.06-2.42-.06-.17,0-1.06.06-2,.06-.26,0-.43,0-.43-.2s.13-.2.3-.2a3.51,3.51,0,0,0,.85-.09c.49-.13.55-.64.57-2.29l.17-11.22c0-.38.13-.64.32-.64s.49.29.8.62,3,3.25,5.75,6c1.27,1.31,3.75,4,4,4.25h.08l-.19-8.41c0-1.16-.19-1.49-.63-1.67a3,3,0,0,0-1-.11c-.23,0-.3-.09-.3-.2s.2-.18.47-.18c1,0,2,0,2.38,0,.21,0,.91,0,1.82,0,.25,0,.42,0,.42.18s-.1.2-.31.2a1.79,1.79,0,0,0-.58.07c-.51.15-.65.48-.68,1.55l-.21,11.93c0,.43-.15.61-.29.61a1.11,1.11,0,0,1-.77-.41c-1.16-1.13-3.5-3.47-5.45-5.45s-4-4.34-4.36-4.67h-.07Z"></path><path class="cls-6" d="M240.58,87a6.69,6.69,0,0,0,.23,4.09c.24.58.47,1.17.74,1.71,1,2.07,2.39,3.3,4.13,3a6.65,6.65,0,0,0,5.18-4.08,1.84,1.84,0,0,0-.09-2.1,3.18,3.18,0,0,1-.21-2.95c.4-1.07,1.09-1.52,1.91-1.18s1.09,1.11,1.14,2.27-.31,2.27-1.07,2.58-.73.81-.79,1.64a12.77,12.77,0,0,0,1.51,7c.73,1.41,2.18,1.92,2.8,1.12.44-.57.11-3.08-.55-4.26a2.43,2.43,0,0,0-2.46-1.41c1.12-2.07,2.54-2.32,5.16-1,1.54-4.22,4.74-5.29,7.35-5.18a44.17,44.17,0,0,0-9.38,23.27h-.91c-10.57,0-21.15,0-31.72,0-.7,0-1-.26-1.11-1.41a43.81,43.81,0,0,0-6.91-18.66c-.7-1.08-1.44-2.08-2.2-3.17,2.86-.27,5.94,1.3,7.28,5.19a3.39,3.39,0,0,1,3.55-.69,5.67,5.67,0,0,1,1.6,1.46A3,3,0,0,0,223,96.46a6.53,6.53,0,0,0-.32,3.64c1,.53,1.86.32,2.54-.88a12,12,0,0,0,1.54-8.31,7.49,7.49,0,0,1-1.33-1.3,3.41,3.41,0,0,1,.13-3.56,1.25,1.25,0,0,1,2.17,0,3.27,3.27,0,0,1,.19,3.45,2.21,2.21,0,0,0,0,2.7,6.62,6.62,0,0,0,4.86,3.61c2.4.3,4.57-2.1,5.32-5.76a19.3,19.3,0,0,0,.13-3c-.72.17-1.2.31-1.68.4-.92.16-1.62-.45-2.06-1.67a4.5,4.5,0,0,1,.18-3.51,1.69,1.69,0,0,1,2.21-1.11,4.32,4.32,0,0,1,.72.38,10.57,10.57,0,0,1-.29-6.83c.51-2.06,1.19-4,1.82-6.12,2.24,3.72,3,9.31,1.91,12.91,1.1-.57,2.16-.84,2.94.88a4.36,4.36,0,0,1,.13,3.4c-.86,2.29-2.21,1.73-3.57,1.25"></path><path class="cls-6" d="M239.12,114c5.37,0,10.74,0,16.1,0a1.38,1.38,0,0,1,1,.38,2.12,2.12,0,0,1,.63,2.24,6.94,6.94,0,0,1-1.4,1.94c-.12.15-.37,0-.56,0H223.1c-1,0-1.6-.87-1.6-2.37s.59-2.23,1.6-2.23h16"></path><path class="cls-4" d="M198.26,144.67a3,3,0,0,1-3.77.76c-2-1.29-1.22-3.21-.6-4.24a11.12,11.12,0,0,0-2.65-.43s-2.49,5.74.93,8.31c3,2.24,7.1.17,7.1.17a9.14,9.14,0,0,0-1-4.57"></path><path class="cls-4" d="M202.32,144.51a3.35,3.35,0,0,0,3.54.79,2.77,2.77,0,0,0,.45-4.35,5.65,5.65,0,0,1,1.56-.54s3.95,4.83.15,8.34c-2.74,2.53-6.46.67-6.46.67a32.87,32.87,0,0,0,.76-4.91"></path><path class="cls-4" d="M191.07,139.89c.12,0,7.63-.53,8.62,6h1.13s.71-6.38,6.7-6.91l2.4-2.29-4,.6a29.08,29.08,0,0,0-6.1-.84,18.08,18.08,0,0,0-6.42,1.55,5.53,5.53,0,0,0-4.38-1.55Z"></path><path class="cls-4" d="M191.19,150.56s-11.26,16.19-10.5,25.21c.83-.13,3.27-2.46,4.77-5.6,0,0-3.66,6.87-5.12,9.08,2.27,1.36,6.83-5.1,7.41-6.86,1.65,2.19-5.91,8.33-7.35,10.29,4.64-.71,9.21-6.38,9.33-6.74-.81,3.6-9.61,9-11.36,11.3,7.38-.63,15.25-11.61,18.89-19.73,3.88-8.62,1.59-15.93-3.87-13.71,6.08-5.27,16.53,12.21-8.81,31.9l-4.67,12.39,1.41,1.67,4.41-11L183,200.5h1.49l2.91-9.43-1.14,9.06,3.34-7.22-.59,7,.77-.27,2.29-10.18,2.75,5v6a5,5,0,0,1-2,1c-1.14.27-.43,2,2.73.64,1.26-.55,3.53.55,4.67.69,0,0,1.41-.69,1.06-2s-2.73.92-4.41-3.05,1.41-11.75,2.56-12.95,12.24-18.4,9.16-30.61c0,0-.88-2.77.09-3.7,0,0-5.45,2.9-8.49-.81,0,0-5,3.55-9,.81"></path><polygon class="cls-4" points="199.69 146.75 200.26 148.45 200.83 146.73 199.69 146.75"></polygon><path class="cls-4" d="M197.77,143.7a1.9,1.9,0,0,1-2.42.48c-1.27-.82-.7-2-.3-2.67a4.42,4.42,0,0,1,1.57.93c.39.35,1.15,1.26,1.15,1.26"></path><path class="cls-4" d="M202.89,143.73a1.91,1.91,0,0,0,2.43.43c1.25-.85.66-2,.25-2.68a4.47,4.47,0,0,0-1.56,1c-.38.36-1.12,1.28-1.12,1.28"></path><path class="cls-4" d="M280.6,145.35a3,3,0,0,0,3.77.76c2-1.29,1.22-3.21.6-4.24a11.09,11.09,0,0,1,2.64-.44s2.49,5.74-.92,8.32c-3,2.24-7.1.17-7.1.17a9.12,9.12,0,0,1,1-4.57"></path><path class="cls-4" d="M276.54,145.19A3.33,3.33,0,0,1,273,146a2.76,2.76,0,0,1-.45-4.34,5.31,5.31,0,0,0-1.56-.55s-4,4.83-.16,8.35c2.75,2.53,6.47.67,6.47.67a32.87,32.87,0,0,1-.76-4.91"></path><path class="cls-4" d="M287.78,140.57c-.11,0-7.62-.53-8.61,6H278s-.71-6.37-6.7-6.91l-2.4-2.28,4,.59a29.38,29.38,0,0,1,6.1-.83,18.18,18.18,0,0,1,6.42,1.54,5.49,5.49,0,0,1,4.37-1.54Z"></path><path class="cls-4" d="M287.67,151.24s11.26,16.19,10.5,25.21c-.83-.13-3.28-2.46-4.77-5.61,0,0,3.66,6.88,5.11,9.09-2.26,1.36-6.82-5.1-7.4-6.87-1.65,2.19,5.91,8.34,7.35,10.3-4.64-.71-9.22-6.38-9.33-6.75.81,3.61,9.61,9,11.36,11.3-7.38-.62-15.25-11.61-18.89-19.72-3.88-8.63-1.59-15.93,3.87-13.71-6.08-5.27-16.53,12.2,8.81,31.9L299,198.77l-1.41,1.66-4.41-11,2.73,11.75h-1.5l-2.9-9.44,1.14,9.06-3.34-7.21.59,7-.77-.28-2.29-10.17-2.76,5v6a5.1,5.1,0,0,0,2,1c1.14.28.43,2.05-2.73.65-1.26-.56-3.53.54-4.67.69,0,0-1.41-.69-1.06-2s2.73.93,4.41-3-1.41-11.74-2.56-12.94-12.24-18.4-9.16-30.61c0,0,.88-2.77-.09-3.7,0,0,5.45,2.9,8.49-.81,0,0,5,3.54,9,.81"></path><polygon class="cls-4" points="279.17 147.43 278.6 149.13 278.03 147.41 279.17 147.43"></polygon><path class="cls-4" d="M281.09,144.37a1.9,1.9,0,0,0,2.42.49c1.26-.83.7-2,.3-2.68a4.36,4.36,0,0,0-1.57.94c-.39.35-1.15,1.25-1.15,1.25"></path><path class="cls-4" d="M276,144.4a1.9,1.9,0,0,1-2.43.44c-1.25-.86-.66-2-.25-2.68a4.45,4.45,0,0,1,1.55,1c.39.37,1.13,1.28,1.13,1.28"></path><path class="cls-5" d="M197.43,222.19l-.29-.13-.28-.15a2.1,2.1,0,0,1-.26-.13l-.26-.13-.25-.13-.25-.12a1.71,1.71,0,0,0-.23-.13l-.22-.11-.22-.12-.2-.11-.2-.11-.18-.1-.19-.1-.16-.09a1,1,0,0,1-.17-.1l-.14-.07-.16-.09-.11-.07-.14-.08-.09-.05-.14-.08-.07,0a.26.26,0,0,0-.11-.07.09.09,0,0,0-.05,0,.24.24,0,0,0-.09-.06l0,0-.18-.11,0,0,0,0-.2-.21a4.46,4.46,0,0,0-2.87-1.52l-.22,0h0l-.17,0h0L189,218h0l-.12,0h0l-.11.06h0s0,0,0,0h0a.31.31,0,0,0,0,.1v0a.53.53,0,0,0,0,.13v0a.76.76,0,0,0,0,.15v0a1.24,1.24,0,0,0,0,.18v0a1.42,1.42,0,0,1,0,.2v0c0,.06,0,.13.06.2a.08.08,0,0,0,0,0,1.28,1.28,0,0,0,.09.22l0,0c0,.08.08.16.13.24a5.17,5.17,0,0,0,3.47,2l.46.12.15,0,.28.08.16,0,.24.08.16.05.22.08.15.06.21.08.13.06.19.09.13.05.19.1.1,0,.25.14h0l.25.15.06.05a.91.91,0,0,1,.16.11l.08.05.12.1.08.06.11.09.06.06.1.1.06.05.1.1,0,.06.1.1,0,.05a1.71,1.71,0,0,0,.11.14c.19-.66.38-1.37.57-2a.34.34,0,0,1-.12-.06"></path><path class="cls-5" d="M164.48,201.36a8.37,8.37,0,0,0-1.61-.16,14.65,14.65,0,0,0-5.75,1.41,7.54,7.54,0,0,1,2.81.8,13.91,13.91,0,0,1,2.8,1.94l0,0,0,0a6.29,6.29,0,0,0,.52.59c.51.49,1.13,1.1,1.82,1.8l0,0c2.93,3,6.53,6.77,6.92,7.19.23.2,2.37,2,5.27,4.14,9.28,6.85,14,8.28,16.29,8.28a2.82,2.82,0,0,0,3-1.85h0v0s0,0,0,0v-.1s0,0,0,0v-.07s0,0,0,0v-.07l0,0,0,0v0a.14.14,0,0,1,0-.06s0,0,0,0l0-.06,0,0a.25.25,0,0,0,0-.07l0,0a.18.18,0,0,0-.05-.07l0,0a.39.39,0,0,0-.08-.1l-.09-.11v0l-.09-.09,0,0-.08-.07,0,0-.08-.07-.06-.05-.09-.07-.06-.05-.1-.06-.07,0-.1-.07-.08-.05-.12-.07-.08-.05-.12-.07-.1,0-.13-.07-.11,0-.14-.06-.11-.05-.16-.07-.12,0a.49.49,0,0,0-.17-.06l-.13-.05-.18-.07-.13,0-.21-.06-.13,0-.25-.07-.12,0-.38-.1a6,6,0,0,1-4-2.44,3.78,3.78,0,0,1-.49-1.41l-.45.41.49-1.49h0v0h0s.06-.2.14-.42v0a.49.49,0,0,1,0-.11.07.07,0,0,1,0-.05l0-.12s0,0,0,0a.56.56,0,0,1,0-.12.64.64,0,0,1,0-.07.49.49,0,0,0,0-.11.76.76,0,0,1,0-.11l0-.1s0-.07,0-.11l0-.1.06-.15a.14.14,0,0,1,0-.06l.06-.18,0-.06.44-1.26a.14.14,0,0,0,0-.06,2,2,0,0,0,.08-.22s0-.06,0-.09a1.72,1.72,0,0,1,.07-.21.56.56,0,0,0,0-.12,1.46,1.46,0,0,0,.07-.19l.06-.14a1.59,1.59,0,0,1,.07-.2s0-.09,0-.14l.08-.21s0-.09.05-.13a1.31,1.31,0,0,1,.08-.21.88.88,0,0,1,.05-.15l.08-.21.06-.15a1.8,1.8,0,0,1,.08-.21l.06-.15c0-.07,0-.14.08-.22a1.16,1.16,0,0,0,.06-.15,1.8,1.8,0,0,1,.08-.21l.06-.15a1.55,1.55,0,0,0,.08-.23l.06-.13.09-.24a.69.69,0,0,0,0-.1c.09-.22.17-.43.26-.64-5.63-2.72-11.08-8.8-13-11.06h0l-.25-.31A38.28,38.28,0,0,1,172,189c-.48,3.63-1.23,11.23.51,14.15l.22.39-.63.39-.2-.11a32.78,32.78,0,0,0-7.41-2.46"></path><path class="cls-5" d="M236.28,231.52l1.48.1h.11a25.55,25.55,0,0,0,3.5,0h.11l1.48-.1a107.53,107.53,0,0,0,38-9.9h0a56.26,56.26,0,0,0,5-2.69c.16-.16.31-.31.47-.45a4.87,4.87,0,0,1,3.16-1.48h0l.3,0,.12,0,.16,0a.14.14,0,0,1,0-.06l-.06-.17a.17.17,0,0,1,0-.1c0-.09-.07-.18-.1-.27a.25.25,0,0,1,0-.07,2.5,2.5,0,0,1-.09-.25.42.42,0,0,1,0-.1l-.12-.34s0,0,0-.06-.07-.21-.11-.31a.29.29,0,0,1,0-.1c-.05-.13-.1-.26-.14-.39s0,0,0,0l-.15-.4,0-.09c0-.14-.1-.29-.16-.44h0l-.16-.44,0-.08q-.17-.47-.36-1s0-.05,0-.09c-.12-.32-.25-.65-.38-1,0,0,0-.07,0-.11-.13-.32-.26-.66-.39-1a1.17,1.17,0,0,0-.05-.11c-.07-.17-.14-.34-.2-.51-2.58-6.27-3.77-7.29-4.16-7.43h-.14c-1,0-4.11,1.28-7.68,2.77-2.61,1.09-5.57,2.33-8.62,3.45-7.83,2.88-19.56,5.8-26.85,5.8h-.8c-7.29,0-19-2.92-26.85-5.8-3.05-1.12-6-2.36-8.62-3.45-3.58-1.49-6.66-2.77-7.68-2.77h-.14c-.39.14-1.58,1.16-4.16,7.42h0s0,0,0,.06-.12.29-.17.43l-.07.15c0,.15-.11.29-.17.43a.14.14,0,0,1,0,.06l-.18.47-.06.14c-.06.14-.11.28-.16.42l0,.06c-.06.15-.11.31-.17.46l-.06.14-.15.41s0,0,0,0-.11.3-.17.45,0,.08,0,.13l-.14.36,0,.08-.15.41,0,.12c0,.11-.08.21-.11.31a.76.76,0,0,0,0,.11l-.13.36c0,.05,0,.09,0,.13l-.09.26s0,.07,0,.11-.07.21-.11.31l0,.13a1.46,1.46,0,0,0-.07.19l0,.12a2.67,2.67,0,0,0-.09.26l0,.12a1.12,1.12,0,0,0,0,.13l0,.08.16,0,.12,0,.3,0h0a5.35,5.35,0,0,1,3.63,1.93c.15.1.73.45,1.68,1s1.94,1,3.33,1.72a107.83,107.83,0,0,0,38,9.9"></path><path class="cls-5" d="M282.27,224.24a1.13,1.13,0,0,1,.1-.13l0-.05.08-.1.06-.06.08-.09s.05,0,.06-.06l.1-.09.07-.07.1-.09.09-.06a.38.38,0,0,1,.12-.09s.05,0,.08-.07l.14-.09.09-.06.22-.14.07,0a1.39,1.39,0,0,1,.21-.11l.11-.06.18-.09.13-.06.18-.08.15-.06.19-.08.16-.06.21-.08.16-.05.25-.08.16,0,.28-.08.15,0,.46-.12a5.22,5.22,0,0,0,3.48-2l.12-.24,0,0c0-.08.07-.15.09-.22s0,0,0,0,0-.14.06-.2a0,0,0,0,1,0,0l0-.2a.06.06,0,0,0,0,0,1.24,1.24,0,0,0,0-.18v0a.76.76,0,0,0,0-.15v0a.49.49,0,0,0,0-.13v0s0-.07,0-.1h0l0,0h0l-.11-.06h0l-.11,0h0l-.16-.05h0l-.16,0h-.27a4.44,4.44,0,0,0-2.87,1.51,2,2,0,0,0-.2.21l0,0,0,0-.33.2h0L286,220l0,0-.16.1s0,0-.06,0l-.17.1-.09.05-.18.1-.11.06-.2.11-.13.08-.21.11-.16.09-.23.12-.17.1a2,2,0,0,0-.25.13l-.19.09-.26.14-.21.11c-.09.05-.19.09-.28.15l-.23.11-.3.15-.24.12-.32.16-.12.05c.19.63.39,1.34.58,2h0"></path><path class="cls-5" d="M301.88,219.18c2.9-2.15,5-3.94,5.27-4.14.38-.41,4-4.21,6.92-7.19l0,0c.69-.7,1.31-1.31,1.83-1.82a4.23,4.23,0,0,0,.51-.58l0,0,0,0a14,14,0,0,1,2.8-1.94,7.49,7.49,0,0,1,2.81-.8,14.65,14.65,0,0,0-5.75-1.41,8.29,8.29,0,0,0-1.61.16,32.32,32.32,0,0,0-7.41,2.46l-.2.11-.64-.39.23-.39c1.65-2.77,1.08-10.06.52-14.18a38.46,38.46,0,0,1-5.61,9.34l-.24.31,0,0c-1.9,2.25-7.35,8.34-13,11.07.15.35.28.71.43,1.06a.08.08,0,0,0,0,0c0,.1.08.19.11.29a.94.94,0,0,1,0,.09,3.36,3.36,0,0,0,.15.37l.09.24s0,.08,0,.13l.09.23s0,.08,0,.12a2.18,2.18,0,0,1,.09.23.69.69,0,0,1,.05.13,2,2,0,0,1,.08.22c0,.05,0,.09.05.13s.06.14.08.21,0,.1.05.14,0,.13.07.2l.06.14.06.19.06.14.06.18.06.16.06.15a.84.84,0,0,0,.05.17,1.12,1.12,0,0,1,0,.13c0,.09.06.17.09.25l0,0,.09.29s0,0,0,.07a1.72,1.72,0,0,1,.07.21s0,0,0,0,0,.15.08.21l0,.05a1.18,1.18,0,0,0,.07.2s0,0,0,0a1.59,1.59,0,0,0,.07.2v0c.26.75.43,1.24.46,1.34h0a0,0,0,0,0,0,0l.53,1.63-.48-.46a3.68,3.68,0,0,1-.49,1.37,6,6,0,0,1-4,2.44l-.39.1-.12,0-.24.07-.14,0-.21.06-.13,0-.18.07-.13.05a.58.58,0,0,0-.17.06.43.43,0,0,0-.12,0,.76.76,0,0,0-.16.06l-.11.05-.14.06-.11,0-.13.06-.1.06-.12.06-.09.05a1.05,1.05,0,0,1-.11.07l-.08.05-.1.06-.08.06s0,0-.08.06l-.08.05a.46.46,0,0,0-.07.07.1.1,0,0,0-.06.05l-.08.06-.06,0a.46.46,0,0,1-.07.07s0,0,0,0a.46.46,0,0,0-.07.07l0,0-.09.1,0,0a.27.27,0,0,0-.07.08l0,0,0,.06,0,0a.11.11,0,0,0,0,.06l0,0,0,.05,0,.05,0,0s0,0,0,0a.05.05,0,0,1,0,0v0l0,0a.08.08,0,0,1,0,0s0,0,0,0a0,0,0,0,1,0,0s0,0,0,0v.06a0,0,0,0,0,0,0v0s0,0,0,0h0v0h0a2.82,2.82,0,0,0,3,1.85c2.3,0,7-1.43,16.29-8.28"></path><path class="cls-4" d="M268.36,124.65H210.87a49.31,49.31,0,0,1,2,9.57c.75,10.47.28,24.45.28,35.88v12.26s19.18,20.13,26.47,26.6c7.29-6.47,26.47-26.6,26.47-26.6V170.1c0-11.43-.48-25.41.28-35.88a50.06,50.06,0,0,1,2-9.57m-8.29,52.46c-3.3,0-6.49-.16-7.92-.16-1.16,0-4.36.16-6.34.16-.71,0-1.07-.16-1.07-.54s.2-.42.81-.42a7.66,7.66,0,0,0,1.83-.22c1-.21,1.27-1.38,1.48-2.93.25-2.24.25-6.45.25-11.35V157a.3.3,0,0,0-.31-.32H229.41c-.15,0-.31.05-.31.32v4.69c0,4.9,0,9.11.26,11.41.15,1.49.45,2.66,2,2.87a19.8,19.8,0,0,0,2.59.22c.56,0,.81.16.81.42s-.41.54-1,.54c-3.31,0-6.5-.16-7.93-.16-1.16,0-4.36.16-6.39.16-.66,0-1-.16-1-.54s.21-.42.81-.42a7.59,7.59,0,0,0,1.83-.22c1-.21,1.27-1.38,1.47-2.93.26-2.24.26-6.45.26-11.35v-9.38c0-8.1,0-9.59-.1-11.3s-.51-2.67-2.19-3a10.44,10.44,0,0,0-2-.16c-.55,0-.86-.11-.86-.48s.36-.48,1.07-.48c2.74,0,5.94.16,7.31.16,1.22,0,4.41-.16,6.39-.16.71,0,1.07.11,1.07.48s-.3.48-.91.48a9.39,9.39,0,0,0-1.48.16c-1.37.27-1.77,1.17-1.87,3-.11,1.71-.11,3.2-.11,11.3v1.12c0,.26.16.37.31.37H248.8c.16,0,.31-.11.31-.37v-1.12c0-8.1,0-9.59-.1-11.3s-.51-2.67-2.19-3a10.44,10.44,0,0,0-2-.16c-.55,0-.86-.11-.86-.48s.36-.48,1.07-.48c2.74,0,5.94.16,7.31.16,1.22,0,4.41-.16,6.4-.16.7,0,1.06.11,1.06.48s-.3.48-.92.48a9.4,9.4,0,0,0-1.47.16c-1.37.27-1.77,1.17-1.87,3-.11,1.71-.11,3.2-.11,11.3v9.38c0,4.9,0,9.11.26,11.41.15,1.49.46,2.66,2,2.87a19.8,19.8,0,0,0,2.59.22c.56,0,.81.16.81.42s-.41.54-1,.54"></path></g></g></g></g></svg>