<svg xmlns="http://www.w3.org/2000/svg" viewBox="0 0 157.05 157.5"><defs><style>.cls-1{fill:#fff;}</style></defs><g id="Camada_2" data-name="Camada 2"><g id="Camada_1-2" data-name="Camada 1"><path class="cls-1" d="M107.41,20.81c-.06,2.44-.93,4.08-2.78,5a1.93,1.93,0,0,0-1.2,2.33,6.83,6.83,0,0,1,0,1.63c-.13,2-.17,3.72,2.11,5,2,1.13,2.4,4,1.26,6.16-1.4,2.64-2.88,5.25-4.47,7.79a5,5,0,0,1-7,1.67,2.2,2.2,0,0,0-3,.21,2.76,2.76,0,0,1-.83.52c-2.14.85-3.39,2.09-3.51,4.7-.11,2.38-2.44,4-5,4.06-2.78.07-5.57.08-8.35,0a5.18,5.18,0,0,1-5.24-5.49c0-1.16-.31-1.84-1.41-2.17a3.31,3.31,0,0,1-1-.53c-1.88-1.41-3.62-2.19-6.11-.81-2,1.11-4.53-.2-5.86-2.35-1.45-2.36-2.87-4.76-4.23-7.18a5.06,5.06,0,0,1,2-7.29,2,2,0,0,0,1.28-2.43,6.38,6.38,0,0,1,0-1.8c.17-1.93.14-3.51-2-4.67s-2.52-4-1.41-6.14c1.44-2.74,3-5.44,4.66-8.06A4.93,4.93,0,0,1,62,9.36c1.3.76,2.25.79,3.29-.22A2.16,2.16,0,0,1,66,8.71,4.71,4.71,0,0,0,69.5,4c.11-2.36,2.42-3.95,4.85-4C77.19,0,80,0,82.86,0a5,5,0,0,1,5.22,5.11c0,1.41.41,2.26,1.76,2.65a2.25,2.25,0,0,1,.58.29c1.91,1.38,3.65,2.41,6.22.91C98.5,7.9,101,9,102.21,10.9c1.67,2.68,3.2,5.45,4.73,8.21A6.61,6.61,0,0,1,107.41,20.81Zm-48,25.05a6.07,6.07,0,0,0,.8-.38c2.52-1.64,4.88-1.36,7.25.41a29.61,29.61,0,0,0,3.94,2.3,5.38,5.38,0,0,1,3.06,4.17c.11.74.13,1.49.2,2.24h8.25c-.46-3.66,1.27-5.77,4.4-7.08,1.19-.5,2.15-1.53,3.33-2.05a9.38,9.38,0,0,1,3.82-1c1.16,0,2.31.79,3.59,1.27l4-7a7.33,7.33,0,0,0-.65-.45c-2.86-1.46-3.87-3.75-3.35-6.9a15.25,15.25,0,0,0-.1-3.75A5.53,5.53,0,0,1,100.75,22l1.34-.83L97.9,14c-3.12,2.44-5.91,2-8.6-.36a6.61,6.61,0,0,0-2-1.18c-3.23-1.2-4.78-3.45-4.54-6.91,0-.07-.12-.16-.18-.24H74.54C74.9,9,73.17,11.16,70,12.45a17.4,17.4,0,0,0-3.15,2,5.29,5.29,0,0,1-5.85.36L59.44,14l-4.19,7.1c.35.21.57.37.81.49a5.59,5.59,0,0,1,3.23,6.19,11.13,11.13,0,0,0,0,3.26c.59,3.46-.55,6-3.73,7.53-.07,0-.09.18-.16.31Z"></path><path class="cls-1" d="M47.14,131.09v22.75c0,2.58-.82,3.39-3.44,3.39-9.43,0-18.87,0-28.31,0a4.21,4.21,0,0,1-3.2-1.27c-3.62-3.63-7.34-7.16-10.91-10.85a4.81,4.81,0,0,1-1.22-3c-.08-11.35-.06-22.7,0-34,0-2.39.85-3.25,3.23-3.25q20.37,0,40.74,0c2.28,0,3.15.88,3.16,3.17ZM41.8,151.92V110.18H5.33v29.2l11.31-2.22c2.44-.47,3.89,1,3.42,3.45l-2.21,11.31ZM14.23,143l-5.7,1.16,4.52,5.15Z"></path><path class="cls-1" d="M128.49,96.82A20.67,20.67,0,0,1,149.24,119a18.78,18.78,0,0,1-4.18,10.8,25.15,25.15,0,0,0-5.67,15.84c-.09,6.54-3.71,10.77-9.78,11.78s-12.19-4-12.35-10c-.13-4.47-.55-8.83-2.69-12.83a33.6,33.6,0,0,0-3-4.64A20.45,20.45,0,0,1,124.28,97.3C125.67,97.06,127.09,97,128.49,96.82Zm7,28.27c-1.36,1.32-2.59,2.47-3.77,3.68a2.34,2.34,0,0,0-.75,1.34c-.07,2.87,0,5.75,0,8.7h3.84a33.13,33.13,0,0,1,6.19-12.4,13.59,13.59,0,0,0,2.91-10.59c-1.1-7.58-6.18-12.55-14-13.49a14.6,14.6,0,0,0-14.84,7c-3.37,5.23-3.54,10.82-.06,16,2.87,4.27,5.76,8.44,6.84,13.46h3.91c0-2.9,0-5.69,0-8.46a2.47,2.47,0,0,0-.74-1.51c-1.21-1.25-2.51-2.4-3.79-3.61l4.2-4.23,3.12,4.34,3.16-4Zm-1.4,19.17H122.58c-.33,4.92,1.89,7.88,5.77,7.87S134.45,149.17,134.12,144.26Z"></path><path class="cls-1" d="M20.91,96.22l-5,1.54a64.92,64.92,0,0,1,9.27-56.89c-1.91-1.5-3.7-2.92-5.5-4.32-1-.77-1.77-1.62-1.5-3a3.11,3.11,0,0,1,2.45-2.34c5.53-1.81,11.05-3.65,16.58-5.46,2.74-.9,4.26.28,4,3.15-.42,5.93-.82,11.86-1.39,17.77a3.48,3.48,0,0,1-1.6,2.5,3.67,3.67,0,0,1-2.93-.56c-2-1.35-3.89-3-6-4.63C18.54,60.16,15.71,77.45,20.91,96.22ZM26.25,34.9l8.67,6.79.73-9.89Z"></path><path class="cls-1" d="M138.29,70.77c-2.57-17.2-10.76-30.79-24.55-41.12l2.5-3.53c.16-.21.36-.39.64-.69C132.09,36.81,141,51.84,143.64,70.77c2.53,0,5,0,7.51,0,1.27,0,2.38.17,3,1.41s.2,2.29-.51,3.34c-3.24,4.85-6.46,9.72-9.71,14.56-1.54,2.29-3.48,2.27-5,0-3.28-4.88-6.53-9.79-9.81-14.68a2.9,2.9,0,0,1-.46-3.2,2.84,2.84,0,0,1,2.91-1.38C133.75,70.8,135.92,70.77,138.29,70.77ZM136,76.08c1.89,2.83,3.65,5.46,5.5,8.25l5.48-8.25Z"></path><path class="cls-1" d="M75.84,138.87a62.09,62.09,0,0,0,27.82-5.4c.75,1.58,1.45,3.09,2.24,4.77a64,64,0,0,1-31.53,5.81c-.79,2.75-1.57,5.35-2.28,8-.32,1.2-.9,2.37-2.14,2.35A4.43,4.43,0,0,1,67,153.06c-3.91-4.4-7.7-8.91-11.5-13.41-1.86-2.21-1.31-4.06,1.45-5l16.47-5.26c1.25-.4,2.45-.63,3.49.44s.81,2.17.46,3.37C76.89,135.07,76.39,136.89,75.84,138.87Zm-14.12,0,6.37,7.43c1.07-3.68,2-7,3.09-10.61Z"></path><path class="cls-1" d="M110.15,96.18c1.07,1.09,2.21,2.24,3.27,3.33L109.89,103l-3-3.5Z"></path><path class="cls-1" d="M152.85,102.23l-3.47,3.57-3.4-3.71,3.54-3.2Z"></path><path class="cls-1" d="M125.8,94.26v-5h5.07v5Z"></path><path class="cls-1" d="M99.62,117.83v-5h5v5Z"></path><path class="cls-1" d="M152.06,112.75h5v5.08h-5Z"></path><path class="cls-1" d="M78.65,16.72A13.09,13.09,0,1,1,65.49,29.53,13,13,0,0,1,78.65,16.72ZM78.5,22a7.85,7.85,0,1,0,7.93,7.9A7.95,7.95,0,0,0,78.5,22Z"></path><path class="cls-1" d="M10.57,115.38h26v5.07h-26Z"></path><path class="cls-1" d="M36.59,128.54v5h-26v-5Z"></path><path class="cls-1" d="M36.59,141.63v5.12H26.33v-5.12Z"></path></g></g></svg>